<?xml version="1.0" standalone="no"?>
<!DOCTYPE svg PUBLIC "-//W3C//DTD SVG 1.1//EN" "http://www.w3.org/Graphics/SVG/1.1/DTD/svg11.dtd" >
<svg>
<metadata>
Created by FontForge 20090622 at Mon May 18 04:29:06 2020
 By deploy user
Copyright 1990-1998 Bitstream Inc.  All rights reserved.
</metadata>
<defs>
<font id="ZurichBT-BoldCondensed" horiz-adv-x="1010" >
  <font-face 
    font-family="Zurich Cn BT"
    font-weight="700"
    font-stretch="condensed"
    units-per-em="2048"
    panose-1="2 11 7 6 3 5 2 4 2 4"
    ascent="1556"
    descent="-492"
    x-height="1028"
    cap-height="1475"
    bbox="-342 -483 2167 1972"
    underline-thickness="205"
    underline-position="-99"
    unicode-range="U+0020-U+F002"
  />
<missing-glyph horiz-adv-x="1229" 
d="M102 -362v1806h1024v-1806h-1024zM217 -248h795v1577h-795v-1577z" />
    <glyph glyph-name=".notdef" horiz-adv-x="1229" 
d="M102 -362v1806h1024v-1806h-1024zM217 -248h795v1577h-795v-1577z" />
    <glyph glyph-name=".null" horiz-adv-x="0" 
 />
    <glyph glyph-name="nonmarkingreturn" horiz-adv-x="506" 
 />
    <glyph glyph-name="space" unicode=" " horiz-adv-x="506" 
 />
    <glyph glyph-name="exclam" unicode="!" horiz-adv-x="664" 
d="M213 0v246h236v-246h-236zM225 395l-35 1080h281l-35 -1080h-211z" />
    <glyph glyph-name="quotedbl" unicode="&#x22;" horiz-adv-x="678" 
d="M406 1438h192v-559h-192v559zM80 1438h192v-559h-192v559z" />
    <glyph glyph-name="numbersign" unicode="#" horiz-adv-x="1575" 
d="M709 848l-88 -244h251l86 244h-249zM709 1464h221l-146 -415h242l148 415h221l-148 -415h283l-74 -201h-280l-84 -242h290l-71 -200h-291l-148 -416h-221l148 416h-244l-149 -416h-220l146 416h-287l76 200h282l86 242h-299l74 201h297z" />
    <glyph glyph-name="dollar" unicode="$" 
d="M553 569v-356q61 15 93 57.5t32 108.5q0 62 -31.5 109.5t-93.5 80.5zM451 -176v176q-184 12 -280.5 112t-96.5 277q0 14 0.5 28.5t3.5 45.5h254v-35q0 -100 30.5 -151t98.5 -66v395q-220 113 -298.5 208t-78.5 230q0 159 94 254.5t273 118.5v162h110v-162
q177 -7 268 -96.5t91 -255.5q0 -7 -1 -21.5t-1 -21.5h-242v10q0 90 -29 134t-94 55v-351q229 -131 307 -228.5t78 -231.5q0 -180 -98.5 -287.5t-278.5 -122.5v-176h-110zM461 907v314q-62 -13 -93.5 -47.5t-31.5 -90.5q0 -60 28.5 -100.5t96.5 -75.5z" />
    <glyph glyph-name="percent" unicode="%" horiz-adv-x="1583" 
d="M1188 158q53 0 77.5 52t24.5 165q0 111 -25 164t-77 53t-76.5 -52t-24.5 -165q0 -114 24.5 -165.5t76.5 -51.5zM395 860q53 0 78 52.5t25 164.5t-25 164.5t-78 52.5q-52 0 -76 -52t-24 -165q0 -114 24 -165.5t76 -51.5zM1481 375q0 -190 -72.5 -282.5t-220.5 -92.5
q-149 0 -221 92.5t-72 282.5q0 189 72 281t221 92t221 -92t72 -281zM688 1077q0 -189 -72 -282t-221 -93q-148 0 -220.5 93t-72.5 282t72 281t221 92t221 -92t72 -281zM403 -25l601 1475h165l-606 -1475h-160z" />
    <glyph glyph-name="ampersand" unicode="&#x26;" horiz-adv-x="1184" 
d="M612 858h64v199h295v-199h182v-207h-182v-651h-469q-127 0 -191.5 17.5t-113.5 58.5q-61 50 -89 130.5t-28 207.5q0 148 65.5 229t206.5 107q-120 36 -171.5 121t-51.5 249q0 189 105.5 273t343.5 84h84v-230h-50q-94 0 -132 -39t-38 -137q0 -110 41.5 -161.5
t128.5 -51.5zM676 227v424h-66q-125 0 -171 -45.5t-46 -163.5q0 -123 41.5 -169t169.5 -46h72z" />
    <glyph glyph-name="quotesingle" unicode="'" horiz-adv-x="352" 
d="M80 1438h192v-559h-192v559z" />
    <glyph glyph-name="parenleft" unicode="(" horiz-adv-x="616" 
d="M352 -342q-104 297 -158.5 538t-54.5 406q0 142 54.5 377.5t154.5 517.5h170q-70 -293 -103.5 -517t-33.5 -400q0 -158 30 -371t101 -551h-160z" />
    <glyph glyph-name="parenright" unicode=")" horiz-adv-x="616" 
d="M260 -342h-162q72 338 101.5 551t29.5 371q0 176 -33 400t-104 517h172q100 -282 154.5 -517.5t54.5 -377.5q0 -166 -54 -405.5t-159 -538.5z" />
    <glyph glyph-name="asterisk" unicode="*" 
d="M506 1004l-100 -267l-181 105l181 219l-281 -47v209l281 -47l-181 219l181 102l100 -264l98 264l180 -102l-180 -219l281 45v-207l-281 45l180 -219l-180 -103z" />
    <glyph glyph-name="plus" unicode="+" horiz-adv-x="1706" 
d="M752 1221h202v-510h498v-199h-498v-512h-202v512h-498v199h498v510z" />
    <glyph glyph-name="comma" unicode="," horiz-adv-x="506" 
d="M68 -197l90 471h248l-160 -471h-178z" />
    <glyph glyph-name="hyphen" unicode="-" horiz-adv-x="569" 
d="M33 375v278h504v-278h-504z" />
    <glyph glyph-name="period" unicode="." horiz-adv-x="506" 
d="M129 0v274h246v-274h-246z" />
    <glyph glyph-name="slash" unicode="/" horiz-adv-x="569" 
d="M57 -190h-166l605 1687h166z" />
    <glyph glyph-name="zero" unicode="0" 
d="M506 1452q86 0 161 -23t117 -63q78 -70 110 -189t32 -393v-172q0 -189 -14.5 -282.5t-47.5 -157.5q-51 -98 -142 -148.5t-216 -50.5q-98 0 -175 31t-132 92q-63 71 -89 176.5t-26 341.5v121q0 281 19.5 387t66.5 178q46 73 133.5 112.5t202.5 39.5zM367 713
q0 -351 29.5 -438t109.5 -87q78 0 107.5 85t29.5 440q0 354 -29.5 439t-107.5 85q-80 0 -109.5 -87t-29.5 -437z" />
    <glyph glyph-name="one" unicode="1" 
d="M401 0v1087q-80 -63 -137.5 -98t-103.5 -49v268q68 27 138 81t144 138h246v-1427h-287z" />
    <glyph glyph-name="two" unicode="2" 
d="M88 0v260q274 328 410.5 541.5t136.5 314.5q0 61 -30.5 94t-86.5 33q-60 0 -91.5 -42t-31.5 -122q0 -17 0.5 -26t1.5 -16l-284 -1q0 7 -1 20.5t-1 20.5q0 180 100.5 276.5t288.5 96.5q199 0 307 -93t108 -263q0 -163 -111 -353t-417 -526h535v-215h-834z" />
    <glyph glyph-name="three" unicode="3" 
d="M92 393h287q3 -110 32 -155t95 -45q64 0 91.5 48.5t27.5 164.5q0 136 -44 184.5t-167 48.5q-7 0 -23.5 -1t-25.5 -1v225h16q141 0 184 41t43 168q0 95 -28.5 140.5t-87.5 45.5q-53 0 -82 -43.5t-29 -121.5v-15h-276q-2 9 -2.5 19t-0.5 28q0 167 96.5 246.5t299.5 79.5
q210 0 302.5 -91t92.5 -298q0 -131 -45.5 -206t-138.5 -99q114 -29 161.5 -107.5t47.5 -245.5q0 -216 -106.5 -322t-326.5 -106q-198 0 -296.5 91.5t-98.5 275.5q0 20 0.5 30.5t1.5 20.5z" />
    <glyph glyph-name="four" unicode="4" 
d="M535 0v332h-447v291l346 804h379v-886h109v-209h-109v-332h-278zM569 541l9 706q-27 -83 -56.5 -164t-62.5 -163l-156 -379h266z" />
    <glyph glyph-name="five" unicode="5" 
d="M100 336l287 -1q2 -77 28.5 -115t78.5 -38q70 0 99.5 65.5t29.5 229.5t-24 218.5t-85 54.5q-50 0 -80.5 -36t-42.5 -112h-270l22 825h717v-221h-450l-11 -354q43 46 96.5 67t127.5 21q149 0 217.5 -111t68.5 -354q0 -260 -100.5 -379t-321.5 -119q-191 0 -289 83.5
t-98 246.5v29z" />
    <glyph glyph-name="six" unicode="6" 
d="M379 834q44 45 101.5 68.5t127.5 23.5q156 0 233 -109.5t77 -331.5q0 -259 -101 -384.5t-309 -125.5q-229 0 -322.5 145.5t-93.5 526.5q0 304 16 420t54 186q52 98 140.5 147.5t211.5 49.5q181 0 280 -83.5t99 -236.5v-8l-285 1q-2 64 -29.5 98t-76.5 34q-68 0 -97.5 -61
t-29.5 -207q0 -58 1 -90.5t3 -62.5zM500 180q68 0 97.5 62t29.5 209q0 152 -28.5 215t-94.5 63q-68 0 -95.5 -58t-27.5 -208q0 -156 27 -219.5t92 -63.5z" />
    <glyph glyph-name="seven" unicode="7" 
d="M223 0l383 1212h-479v215h756v-243l-338 -1184h-322z" />
    <glyph glyph-name="eight" unicode="8" 
d="M508 854q52 0 77 50.5t25 154.5q0 89 -26.5 137.5t-75.5 48.5q-54 0 -81.5 -47t-27.5 -139q0 -108 26 -156.5t83 -48.5zM508 186q60 0 91.5 54t31.5 157q0 114 -33 178t-90 64q-62 0 -95.5 -63t-33.5 -179q0 -103 32.5 -157t96.5 -54zM309 750q-97 30 -142.5 107.5
t-45.5 211.5q0 190 98 286.5t289 96.5q187 0 284 -97.5t97 -285.5q0 -134 -46 -211.5t-143 -107.5q103 -36 157 -132t54 -241q0 -200 -102.5 -301t-306.5 -101q-203 0 -303.5 103.5t-100.5 310.5q0 137 56 231.5t155 129.5z" />
    <glyph glyph-name="nine" unicode="9" 
d="M631 592q-45 -47 -103.5 -70.5t-128.5 -23.5q-155 0 -231 109.5t-76 332.5q0 259 100.5 383.5t309.5 124.5q229 0 322.5 -144.5t93.5 -525.5q0 -303 -16 -419t-54 -187q-52 -98 -140.5 -147.5t-211.5 -49.5q-182 0 -281.5 84t-99.5 236v8h284q5 -66 32 -100.5t75 -34.5
q69 0 99 62.5t30 211.5q0 58 -1 89.5t-3 60.5zM508 1245q-67 0 -96 -61.5t-29 -210.5q0 -152 28 -214.5t95 -62.5t94 57t27 210q0 156 -27.5 219t-91.5 63z" />
    <glyph glyph-name="colon" unicode=":" horiz-adv-x="532" 
d="M143 0v274h246v-274h-246zM143 754v274h246v-274h-246z" />
    <glyph glyph-name="semicolon" unicode=";" horiz-adv-x="532" 
d="M55 -197l92 471h246l-160 -471h-178zM147 754v274h246v-274h-246z" />
    <glyph glyph-name="less" unicode="&#x3c;" horiz-adv-x="1706" 
d="M1442 1194v-219l-893 -365l893 -364v-219l-1178 485v199z" />
    <glyph glyph-name="equal" unicode="=" horiz-adv-x="1706" 
d="M254 496h1198v-199h-1198v199zM254 926h1198v-199h-1198v199z" />
    <glyph glyph-name="greater" unicode="&#x3e;" horiz-adv-x="1706" 
d="M264 1194l1178 -483v-199l-1178 -485v219l895 364l-895 365v219z" />
    <glyph glyph-name="question" unicode="?" horiz-adv-x="854" 
d="M303 0v246h234v-246h-234zM313 397v146q0 73 12.5 123t41.5 108q23 47 72 130q98 161 98 249q0 66 -29.5 103.5t-81.5 37.5q-65 0 -94 -50.5t-29 -166.5l-252 1q-1 8 -1.5 18t-0.5 28q0 181 97 278t276 97q180 0 280.5 -91t100.5 -255q0 -191 -177 -408l-11 -13l-10 -12
q-83 -99 -83 -206v-117h-209z" />
    <glyph glyph-name="at" unicode="@" horiz-adv-x="2048" 
d="M1167 272q-55 -84 -127 -123.5t-170 -39.5q-158 0 -240.5 86t-82.5 254q0 239 139.5 401t343.5 162q80 0 139 -33t97 -98l53 98h178l-147 -598q-3 -11 -5 -22.5t-2 -18.5q0 -35 24 -52.5t71 -17.5q39 0 81.5 20t79.5 56q86 80 130.5 187t44.5 235q0 240 -185.5 394.5
t-478.5 154.5q-141 0 -262.5 -34t-220.5 -101q-170 -114 -261.5 -285t-91.5 -375q0 -307 207 -490.5t553 -183.5q162 0 316.5 49t287.5 142l82 -117q-153 -115 -324.5 -173t-357.5 -58q-192 0 -353 48.5t-286 143.5q-155 121 -232 279t-77 358q0 167 52.5 318.5t154.5 275.5
q148 181 356 274t463 93q169 0 317.5 -45.5t258.5 -128.5q135 -105 201.5 -239.5t66.5 -303.5q0 -165 -65.5 -304.5t-188.5 -238.5q-70 -56 -152.5 -85.5t-171.5 -29.5q-106 0 -159.5 42t-55.5 124zM1217 700q-13 81 -57.5 123.5t-117.5 42.5q-114 0 -198 -124t-84 -298
q0 -92 40.5 -140t117.5 -48q83 0 151.5 63t93.5 164z" />
    <glyph glyph-name="A" unicode="A" horiz-adv-x="1262" 
d="M465 555h315l-153 639zM915 0l-79 328h-428l-78 -328h-310l416 1475h393l410 -1475h-324z" />
    <glyph glyph-name="B" unicode="B" horiz-adv-x="1208" 
d="M428 877h174q94 0 139 48t45 148q0 84 -47.5 129t-136.5 45h-174v-370zM428 231h147q118 0 173 50.5t55 158.5q0 107 -54 158t-165 51h-156v-418zM131 0v1475h522q219 0 325.5 -89t106.5 -270q0 -149 -66 -243t-179 -105q127 -22 197.5 -114.5t70.5 -237.5
q0 -217 -107 -316.5t-339 -99.5h-531z" />
    <glyph glyph-name="C" unicode="C" horiz-adv-x="1147" 
d="M1064 504q2 -12 2.5 -26t0.5 -42q0 -220 -119 -339.5t-340 -119.5q-102 0 -190.5 27t-141.5 74q-91 79 -129 224t-38 470q0 223 23.5 346t78.5 205q55 83 156.5 126.5t238.5 43.5q224 0 337.5 -114t113.5 -339v-28h-309v28q0 117 -36.5 173.5t-111.5 56.5
q-104 0 -143 -99t-39 -460q0 -303 40.5 -403.5t145.5 -100.5q75 0 112.5 61t37.5 185q0 8 -1 24.5t-1 26.5h312z" />
    <glyph glyph-name="D" unicode="D" horiz-adv-x="1262" 
d="M465 1251v-1020h133q147 0 202.5 97.5t55.5 412.5t-55.5 412.5t-202.5 97.5h-133zM152 1475h487q285 0 400.5 -163t115.5 -575q0 -411 -115.5 -574t-400.5 -163h-487v1475z" />
    <glyph glyph-name="E" unicode="E" horiz-adv-x="1022" 
d="M131 0v1475h797v-228h-486v-352h447v-227h-447v-430h504v-238h-815z" />
    <glyph glyph-name="F" unicode="F" horiz-adv-x="983" 
d="M131 0v1475h760v-228h-449v-352h428v-227h-428v-668h-311z" />
    <glyph glyph-name="G" unicode="G" horiz-adv-x="1208" 
d="M1096 776v-749q-149 -27 -252 -38.5t-187 -11.5q-135 0 -228.5 25t-152.5 76q-91 80 -129 225.5t-38 468.5q0 223 23.5 346t78.5 205q57 85 160.5 127.5t253.5 42.5q230 0 350.5 -115t120.5 -336v-22h-303v18q0 125 -43.5 185.5t-133.5 60.5q-113 0 -155.5 -100.5
t-42.5 -442.5q0 -361 51.5 -454.5t192.5 -93.5q31 0 67.5 5t85.5 17v330h-170v231h451z" />
    <glyph glyph-name="H" unicode="H" horiz-adv-x="1214" 
d="M438 0h-307v1475h307v-574h336v574h309v-1475h-309v653h-336v-653z" />
    <glyph glyph-name="I" unicode="I" horiz-adv-x="569" 
d="M133 0v1475h301v-1475h-301z" />
    <glyph glyph-name="J" unicode="J" horiz-adv-x="1038" 
d="M25 494h303q0 -11 -1 -31t-1 -29q0 -127 30 -183t97 -56q79 0 109 54.5t30 260.5v965h309v-1004q0 -154 -17.5 -226.5t-58.5 -129.5q-50 -73 -138.5 -106.5t-231.5 -33.5q-225 0 -328.5 105t-103.5 332q0 33 0.5 50t1.5 32z" />
    <glyph glyph-name="K" unicode="K" horiz-adv-x="1114" 
d="M131 0v1475h307v-641l383 641h322l-426 -678l426 -797h-357l-348 717v-717h-307z" />
    <glyph glyph-name="L" unicode="L" horiz-adv-x="920" 
d="M131 0v1475h311v-1215h451v-260h-762z" />
    <glyph glyph-name="M" unicode="M" horiz-adv-x="1708" 
d="M129 0v1475h475l209 -904q12 -48 23 -123t22 -183q5 76 15 153.5t26 154.5l186 902h494v-1475h-287l13 1008q1 114 4.5 205t9.5 165l-307 -1378h-295l-324 1380q14 -135 18 -364l1 -8l18 -1008h-301z" />
    <glyph glyph-name="N" unicode="N" horiz-adv-x="1356" 
d="M131 0v1475h414l282 -766q50 -134 88.5 -261.5t65.5 -250.5q-11 95 -17 200.5t-6 227.5l-18 850h285v-1475h-404l-299 807q-33 91 -71 218t-78 280q11 -140 17 -246t7 -180l17 -879h-283z" />
    <glyph glyph-name="O" unicode="O" horiz-adv-x="1214" 
d="M608 -23q-102 0 -190.5 27t-141.5 74q-91 79 -130.5 229t-39.5 447q0 230 24 359t79 210q54 82 156.5 126t240.5 44q106 0 194 -27.5t144 -76.5q87 -77 124.5 -213.5t37.5 -403.5q0 -278 -24 -407.5t-81 -214.5q-54 -82 -157 -127.5t-236 -45.5zM416 741q0 -326 41 -430
t147 -104q110 0 151.5 100.5t41.5 448.5q0 308 -41 408t-148 100q-109 0 -150.5 -102t-41.5 -421z" />
    <glyph glyph-name="P" unicode="P" horiz-adv-x="1139" 
d="M627 1475q261 0 360.5 -98t99.5 -345q0 -115 -26.5 -203.5t-77.5 -140.5q-50 -52 -116.5 -74t-219.5 -22h-18h-176v-592h-322v1475h496zM449 1243v-414h102q134 0 178.5 45t44.5 166q0 115 -41.5 159t-154.5 44h-129z" />
    <glyph glyph-name="Q" unicode="Q" horiz-adv-x="1214" 
d="M975 186q45 16 98 23.5t117 7.5h55v-217h-373q-21 0 -113 -9t-163 -9q-109 0 -187.5 23.5t-134.5 72.5q-92 81 -130 223t-38 473q0 223 24 345t79 204q54 82 156.5 126t240.5 44q137 0 239 -44.5t159 -127.5q55 -83 78.5 -212.5t23.5 -375.5q0 -235 -30.5 -360
t-100.5 -187zM416 741q0 -329 40.5 -431.5t145.5 -102.5q110 0 151.5 100.5t41.5 448.5q0 308 -41 408t-148 100q-109 0 -149.5 -100.5t-40.5 -422.5z" />
    <glyph glyph-name="R" unicode="R" horiz-adv-x="1151" 
d="M569 1475q271 0 368 -82t97 -297q0 -170 -49.5 -254t-165.5 -113q132 -27 180 -93.5t48 -256.5q0 -12 -1.5 -37t-1.5 -37q0 -101 9.5 -173.5t29.5 -131.5h-321q-21 72 -23 292q-1 75 -2 116q-3 110 -41 155t-127 45h-129v-608h-309v1475h438zM440 838h76q124 0 172.5 47
t48.5 164q0 113 -44 154.5t-171 41.5h-82v-407z" />
    <glyph glyph-name="S" unicode="S" horiz-adv-x="1128" 
d="M92 455h314v-39q0 -114 38.5 -162.5t128.5 -48.5q71 0 112.5 43.5t41.5 118.5q0 105 -196 233l-19 12l-164.5 110t-91.5 71q-81 74 -111 139.5t-30 161.5q0 185 126.5 295t340.5 110q221 0 332.5 -102t111.5 -303v-39h-305v8q0 104 -37.5 156.5t-112.5 52.5
q-68 0 -108.5 -41t-40.5 -111q0 -119 256 -271l102 -63q145 -92 201.5 -176.5t56.5 -201.5q0 -215 -126 -324t-373 -109q-232 0 -340.5 103.5t-108.5 324.5q0 8 1 25t1 27z" />
    <glyph glyph-name="T" unicode="T" horiz-adv-x="1034" 
d="M365 0v1233h-336v242h991v-242h-338v-1233h-317z" />
    <glyph glyph-name="U" unicode="U" horiz-adv-x="1266" 
d="M1135 1475v-924q0 -310 -117 -443t-385 -133q-258 0 -380 130t-122 403v967h307v-887q0 -253 43 -321t156 -68q109 0 151.5 76t42.5 313v887h304z" />
    <glyph glyph-name="V" unicode="V" horiz-adv-x="1128" 
d="M371 -2l-371 1477h322l151 -770q38 -188 56 -294t26 -190q15 137 34.5 258.5t43.5 225.5l176 770h311l-385 -1477h-364z" />
    <glyph glyph-name="W" unicode="W" horiz-adv-x="1831" 
d="M319 0l-319 1475h322l106 -662q12 -77 30 -229t36 -338q18 152 42 294.5t54 276.5l145 658h359l131 -666q15 -80 36.5 -226.5t45.5 -336.5q15 130 39 271t59 300l145 658h271l-330 -1475h-344l-162 782q-16 77 -31.5 186.5t-31.5 260.5q-12 -94 -32 -201t-52 -248
l-179 -780h-340z" />
    <glyph glyph-name="X" unicode="X" horiz-adv-x="1139" 
d="M797 0l-244 535l-238 -535h-309l379 776l-352 699h332l225 -496l219 496h315l-368 -727l374 -748h-333z" />
    <glyph glyph-name="Y" unicode="Y" horiz-adv-x="1096" 
d="M375 0v555l-385 920h342l213 -615l237 615h322l-416 -920v-555h-313z" />
    <glyph glyph-name="Z" unicode="Z" horiz-adv-x="948" 
d="M4 0v254l610 983h-581v238h891v-263l-602 -970h622v-242h-940z" />
    <glyph glyph-name="bracketleft" unicode="[" horiz-adv-x="616" 
d="M582 -356h-432v1831h432v-172h-209v-1489h209v-170z" />
    <glyph glyph-name="backslash" unicode="\" horiz-adv-x="569" 
d="M662 -190h-166l-607 1687h166z" />
    <glyph glyph-name="bracketright" unicode="]" horiz-adv-x="616" 
d="M25 -356v170h208v1489h-208v172h430v-1831h-430z" />
    <glyph glyph-name="asciicircum" unicode="^" horiz-adv-x="2048" 
d="M897 1460h252l481 -561h-235l-371 371l-373 -371h-235z" />
    <glyph glyph-name="underscore" unicode="_" horiz-adv-x="1024" 
d="M0 -279h1024v-204h-1024v204z" />
    <glyph glyph-name="grave" unicode="`" horiz-adv-x="1024" 
d="M219 1526h258l197 -369h-142z" />
    <glyph glyph-name="a" unicode="a" horiz-adv-x="995" 
d="M102 760v20q0 134 103 203.5t301 69.5q196 0 287.5 -72t91.5 -227v-512q0 -68 5 -128.5t15 -113.5h-256l-22 117q-39 -56 -115.5 -90.5t-161.5 -34.5q-127 0 -201.5 86.5t-74.5 234.5q0 173 108 256.5t348 96.5h91v47q0 106 -26.5 149t-88.5 43q-68 0 -102.5 -36.5
t-34.5 -108.5h-267zM621 510q-155 0 -214 -41.5t-59 -146.5q0 -76 29.5 -118t81.5 -42q78 0 120 66.5t42 191.5v90z" />
    <glyph glyph-name="b" unicode="b" horiz-adv-x="995" 
d="M385 635v-221q0 -155 27.5 -209.5t97.5 -54.5q67 0 92 57t25 295v24q0 211 -27 277.5t-94 66.5q-61 0 -91 -58t-30 -177zM102 1475h285v-531q44 56 101 83.5t130 27.5q158 0 226.5 -119t68.5 -404q0 -190 -14 -280t-47 -148q-34 -60 -97 -93.5t-143 -33.5
q-77 0 -136.5 32.5t-90.5 90.5l-8 -98h-283q4 61 6 118.5t2 108.5v1246z" />
    <glyph glyph-name="c" unicode="c" horiz-adv-x="995" 
d="M637 381h287q0 -202 -104.5 -303t-313.5 -101q-239 0 -332.5 119t-93.5 441q0 277 99 396.5t327 119.5q200 0 309 -98.5t109 -278.5v-10h-287v10q0 99 -33 147.5t-100 48.5q-76 0 -104.5 -68t-28.5 -280q0 -217 29.5 -292.5t105.5 -75.5q63 0 97 53t34 153v19z" />
    <glyph glyph-name="d" unicode="d" horiz-adv-x="995" 
d="M606 635q0 119 -30 177t-91 58q-67 0 -93.5 -66.5t-26.5 -277.5v-24q0 -238 24.5 -295t91.5 -57q70 0 97.5 54.5t27.5 209.5v221zM608 944v531h281v-1246q0 -51 2 -108.5t6 -118.5h-281l-10 98q-31 -58 -90 -90.5t-137 -32.5q-60 0 -113.5 21.5t-89.5 58.5
q-53 56 -74.5 152t-21.5 323q0 283 66 403t219 120q80 0 139 -27t104 -84z" />
    <glyph glyph-name="e" unicode="e" horiz-adv-x="995" 
d="M375 645h258v86q0 73 -33.5 113.5t-93.5 40.5q-65 0 -98 -51.5t-33 -153.5v-35zM637 381h287q0 -202 -104.5 -303t-313.5 -101q-239 0 -332.5 119t-93.5 441q0 277 99 396.5t327 119.5q212 0 315 -102.5t103 -311.5v-156h-549v-106q0 -116 30.5 -168.5t98.5 -52.5
q65 0 99 52.5t34 153.5v19z" />
    <glyph glyph-name="f" unicode="f" horiz-adv-x="623" 
d="M150 0v858h-146v170h146v172q0 183 67.5 240t265.5 57q29 0 62 -1.5t71 -4.5v-203q-8 1 -18 1.5t-29 0.5q-78 0 -106.5 -30t-28.5 -121v-111h182v-170h-182v-858h-284z" />
    <glyph glyph-name="g" unicode="g" horiz-adv-x="995" 
d="M606 618q0 154 -27.5 208.5t-97.5 54.5q-67 0 -91.5 -57.5t-24.5 -295.5v-24q0 -211 26.5 -277.5t93.5 -66.5q61 0 91 58t30 177v223zM889 20q0 -238 -90.5 -330.5t-315.5 -92.5q-184 0 -283.5 74t-99.5 210v13l277 -1q3 -71 28.5 -100t86.5 -29t85.5 33t28.5 174v117
q-53 -56 -111.5 -84.5t-121.5 -28.5h-6q-154 0 -220.5 119.5t-66.5 403.5q0 197 13.5 284.5t45.5 143.5q34 60 97 93.5t143 33.5q78 0 137 -32t90 -91l10 98h281q-4 -62 -6 -118t-2 -109v-781z" />
    <glyph glyph-name="h" unicode="h" horiz-adv-x="1008" 
d="M395 0h-289v1475h289v-553q35 64 93.5 97.5t136.5 33.5q135 0 206.5 -69.5t71.5 -201.5v-782h-289v702q0 100 -21.5 137.5t-74.5 37.5q-56 0 -89.5 -39.5t-33.5 -106.5v-731z" />
    <glyph glyph-name="i" unicode="i" horiz-adv-x="485" 
d="M387 1028v-1028h-289v1028h289zM387 1475v-244h-289v244h289z" />
    <glyph glyph-name="j" unicode="j" horiz-adv-x="496" 
d="M397 1475v-244h-284v244h284zM397 1028v-1096q0 -198 -64.5 -266.5t-236.5 -68.5q-25 0 -39 0.5t-26 1.5v198q46 5 64 32t18 130v1069h284z" />
    <glyph glyph-name="k" unicode="k" horiz-adv-x="991" 
d="M115 0v1475h286v-867l263 420h288l-301 -448l336 -580h-313l-273 539v-539h-286z" />
    <glyph glyph-name="l" unicode="l" horiz-adv-x="485" 
d="M100 0v1475h285v-1475h-285z" />
    <glyph glyph-name="m" unicode="m" horiz-adv-x="1513" 
d="M395 922q35 64 93.5 97.5t136.5 33.5q100 0 168 -41t96 -117q40 79 101 118.5t143 39.5q135 0 206.5 -69.5t71.5 -201.5v-782h-289v702q0 102 -21 138.5t-73 36.5q-56 0 -90.5 -40t-34.5 -106v-731h-289v702q0 100 -21.5 137.5t-74.5 37.5q-56 0 -89.5 -39.5
t-33.5 -106.5v-731h-289v844q0 71 -2 109.5t-7 74.5h290z" />
    <glyph glyph-name="n" unicode="n" horiz-adv-x="1008" 
d="M395 0h-289v844q0 71 -2 109.5t-7 74.5h290l8 -106q35 64 93.5 97.5t136.5 33.5q135 0 206.5 -69.5t71.5 -201.5v-782h-289v702q0 100 -21.5 137.5t-74.5 37.5q-56 0 -89.5 -39.5t-33.5 -106.5v-731z" />
    <glyph glyph-name="o" unicode="o" 
d="M512 1053q223 0 320.5 -119.5t97.5 -396.5q0 -323 -93 -441.5t-331 -118.5q-239 0 -332.5 119t-93.5 441q0 279 100 397.5t332 118.5zM371 524q0 -217 29.5 -292.5t105.5 -75.5t105.5 75.5t29.5 292.5q0 213 -29.5 280.5t-107.5 67.5q-76 0 -104.5 -68t-28.5 -280z" />
    <glyph glyph-name="p" unicode="p" horiz-adv-x="995" 
d="M389 618v-223q0 -119 30 -177t91 -58q67 0 93 64.5t26 279.5v24q0 238 -25 295.5t-92 57.5q-69 0 -96 -53.5t-27 -209.5zM106 -389v1190q0 46 -2 99t-7 128h282l10 -98q31 59 90.5 91t136.5 32q60 0 113.5 -21.5t89.5 -58.5q53 -56 74.5 -152t21.5 -323
q0 -288 -67.5 -405.5t-224.5 -117.5q-74 0 -131 27.5t-101 83.5v-475h-285z" />
    <glyph glyph-name="q" unicode="q" horiz-adv-x="995" 
d="M606 395v223q0 154 -27.5 208.5t-97.5 54.5q-67 0 -91.5 -57.5t-24.5 -295.5v-24q0 -211 26.5 -277.5t93.5 -66.5q61 0 91 58t30 177zM608 -389v475q-44 -56 -103 -84.5t-132 -28.5q-157 0 -225 119.5t-68 405.5q0 197 13.5 284.5t45.5 143.5q34 60 97 93.5t143 33.5
q78 0 137 -32t90 -91l10 98h281q-4 -62 -6 -118t-2 -109v-1190h-281z" />
    <glyph glyph-name="r" unicode="r" horiz-adv-x="682" 
d="M106 0v1030h252l19 -135q28 76 93 117t159 41h18v-250h-26q-121 0 -173.5 -57.5t-52.5 -192.5v-553h-289z" />
    <glyph glyph-name="s" unicode="s" horiz-adv-x="920" 
d="M66 340h280v-21q0 -76 28.5 -120.5t76.5 -44.5q58 0 93.5 29t35.5 77q0 82 -195 184q-44 22 -68 35q-166 90 -207.5 146.5t-41.5 142.5q0 129 102 209t270 80q186 0 281.5 -71t95.5 -208q0 -5 -1 -15.5t-1 -17.5l-270 1q1 6 1.5 13t0.5 19q0 62 -26 92.5t-79 30.5
q-46 0 -75 -25t-29 -65q0 -66 177 -160q78 -42 124 -69q124 -74 169.5 -137.5t45.5 -153.5q0 -152 -111 -228.5t-329 -76.5q-169 0 -260 81t-91 232q0 16 0.5 24.5t2.5 16.5z" />
    <glyph glyph-name="t" unicode="t" horiz-adv-x="621" 
d="M602 6q-65 -8 -118.5 -12t-88.5 -4q-134 0 -197 65t-63 205v594h-135v174h135v174l283 125v-299h184v-174h-184v-557q0 -79 21 -102t85 -23q17 0 64 3q10 1 14 1v-170z" />
    <glyph glyph-name="u" unicode="u" horiz-adv-x="1008" 
d="M608 1028h291v-891q0 -52 2 -80.5t6 -54.5h-289l-10 109q-36 -66 -93.5 -100t-133.5 -34q-135 0 -207 70.5t-72 202.5v778h289v-700q0 -102 21 -138t73 -36q56 0 89.5 39t33.5 106v729z" />
    <glyph glyph-name="v" unicode="v" horiz-adv-x="930" 
d="M291 0l-262 1028h295l73 -414q16 -89 29.5 -203t24.5 -247q21 162 88 422l6 23l110 419h279l-330 -1028h-313z" />
    <glyph glyph-name="w" unicode="w" horiz-adv-x="1608" 
d="M289 0l-264 1028h294l78 -424q23 -121 34.5 -222.5t12.5 -186.5q18 96 42.5 201.5t54.5 217.5l112 414h299l133 -518q19 -72 32 -150t22 -165q10 108 42 268l9 47l102 518h289l-287 -1028h-309l-125 469q-21 83 -35 169.5t-20 176.5q-20 -122 -37.5 -205.5t-36.5 -144.5
l-141 -465h-301z" />
    <glyph glyph-name="x" unicode="x" horiz-adv-x="1030" 
d="M317 0h-290l313 549l-285 479h312l161 -317l170 317h287l-278 -483l301 -545h-316l-180 379z" />
    <glyph glyph-name="y" unicode="y" horiz-adv-x="924" 
d="M205 -389l112 364l-299 1053h289l156 -737l184 737h281l-428 -1417h-295z" />
    <glyph glyph-name="z" unicode="z" horiz-adv-x="811" 
d="M51 0v221l408 633h-385v174h684v-184l-408 -654h408v-190h-707z" />
    <glyph glyph-name="braceleft" unicode="{" horiz-adv-x="1024" 
d="M883 1477v-209q-9 0 -25 1t-22 1q-101 0 -136.5 -38.5t-35.5 -162.5v-240q0 -148 -45 -210t-162 -89q117 -27 162 -88t45 -209v-241q0 -123 35 -161t137 -38q6 0 22 1t25 1v-209q-14 0 -39 -1t-37 -1q-100 0 -167 12t-114 37q-57 34 -80.5 91.5t-23.5 199.5v252
q0 137 -51 194.5t-172 57.5q-6 0 -20 -1t-21 -1v209q7 0 21 -1t20 -1q120 0 171.5 58t51.5 196v250q0 143 23.5 201t80.5 92q47 25 114 37t167 12q12 0 37 -1t39 -1z" />
    <glyph glyph-name="bar" unicode="|" horiz-adv-x="1024" 
d="M410 1565h206v-2048h-206v2048z" />
    <glyph glyph-name="braceright" unicode="}" horiz-adv-x="1024" 
d="M143 1477h68q110 0 177 -12t112 -38q57 -32 80.5 -91.5t23.5 -198.5v-252q0 -137 51 -194.5t172 -57.5q6 0 20 1t21 1v-209h-37q-125 0 -176 -56t-51 -194v-252q0 -143 -23.5 -201t-80.5 -90q-47 -25 -114 -37t-167 -12q-12 0 -37 1t-39 1v209q9 0 25 -1t22 -1
q101 0 136.5 38.5t35.5 160.5v239q0 150 45 211.5t162 87.5q-117 27 -162 89t-45 210v242q0 122 -35.5 160.5t-136.5 38.5q-6 0 -22 -1t-25 -1v209z" />
    <glyph glyph-name="asciitilde" unicode="~" horiz-adv-x="1706" 
d="M1530 803v-221q-104 -71 -196.5 -104.5t-182.5 -33.5q-46 0 -92 8t-92 23q-24 8 -71 25q-219 75 -333 75q-85 0 -177.5 -37.5t-207.5 -119.5v221q107 72 204 107.5t183 35.5q117 0 291 -58l4 -1l55 -19q155 -55 240 -55t175 37t200 117z" />
    <glyph glyph-name="Adieresis" unicode="&#xc4;" horiz-adv-x="1262" 
d="M465 555h315l-153 639zM915 0l-79 328h-428l-78 -328h-310l416 1475h393l410 -1475h-324zM692 1663v243h226v-243h-226zM344 1663v243h226v-243h-226z" />
    <glyph glyph-name="Aring" unicode="&#xc5;" horiz-adv-x="1262" 
d="M510 1706q0 -54 35.5 -90.5t89.5 -36.5q53 0 90 37t37 90t-37 89t-90 36q-54 0 -89.5 -35.5t-35.5 -89.5zM465 555h315l-153 639zM915 0l-79 328h-428l-78 -328h-310l420 1475h68q-69 38 -104 96t-35 135q0 111 77.5 188.5t188.5 77.5t188.5 -77.5t77.5 -188.5
q0 -77 -35 -135t-104 -96h67l410 -1475h-324z" />
    <glyph glyph-name="Ccedilla" unicode="&#xc7;" horiz-adv-x="1147" 
d="M1064 504q2 -12 2.5 -26t0.5 -42q0 -220 -119 -339.5t-340 -119.5q-102 0 -190.5 27t-141.5 74q-91 79 -129 224t-38 470q0 223 23.5 346t78.5 205q55 83 156.5 126.5t238.5 43.5q224 0 337.5 -114t113.5 -339v-28h-309v28q0 117 -36.5 173.5t-111.5 56.5
q-104 0 -143 -99t-39 -460q0 -303 40.5 -403.5t145.5 -100.5q75 0 112.5 61t37.5 185q0 8 -1 24.5t-1 26.5h312zM321 -438v129q81 -21 146 -32t110 -11q53 0 77 17.5t24 55.5t-28 54t-93 16q-23 0 -35 -0.5t-22 -1.5v211h102v-90h14q118 0 177 -48t59 -143q0 -100 -66 -150
t-198 -50q-52 0 -120 11t-147 32z" />
    <glyph glyph-name="Eacute" unicode="&#xc9;" horiz-adv-x="1022" 
d="M131 0v1475h797v-228h-486v-352h447v-227h-447v-430h504v-238h-815zM823 1972l-313 -369h-142l197 369h258z" />
    <glyph glyph-name="Ntilde" unicode="&#xd1;" horiz-adv-x="1356" 
d="M131 0v1475h414l282 -766q50 -134 88.5 -261.5t65.5 -250.5q-11 95 -17 200.5t-6 227.5l-18 850h285v-1475h-404l-299 807q-33 91 -71 218t-78 280q11 -140 17 -246t7 -180l17 -879h-283zM973 1921q-25 -124 -72.5 -182t-122.5 -58q-19 0 -35 2.5t-32 7.5l-83 27
q-16 5 -31.5 7.5t-29.5 2.5q-31 0 -48.5 -19.5t-25.5 -62.5h-110q23 124 69.5 182t121.5 58q18 0 39.5 -4t42.5 -11l83 -24q12 -4 24 -6t28 -2q29 0 47 20t24 62h111z" />
    <glyph glyph-name="Odieresis" unicode="&#xd6;" horiz-adv-x="1214" 
d="M608 -23q-102 0 -190.5 27t-141.5 74q-91 79 -130.5 229t-39.5 447q0 230 24 359t79 210q54 82 156.5 126t240.5 44q106 0 194 -27.5t144 -76.5q87 -77 124.5 -213.5t37.5 -403.5q0 -278 -24 -407.5t-81 -214.5q-54 -82 -157 -127.5t-236 -45.5zM416 741q0 -326 41 -430
t147 -104q110 0 151.5 100.5t41.5 448.5q0 308 -41 408t-148 100q-109 0 -150.5 -102t-41.5 -421zM669 1663v243h226v-243h-226zM321 1663v243h226v-243h-226z" />
    <glyph glyph-name="Udieresis" unicode="&#xdc;" horiz-adv-x="1266" 
d="M1135 1475v-924q0 -310 -117 -443t-385 -133q-258 0 -380 130t-122 403v967h307v-887q0 -253 43 -321t156 -68q109 0 151.5 76t42.5 313v887h304zM694 1663v243h226v-243h-226zM346 1663v243h226v-243h-226z" />
    <glyph glyph-name="aacute" unicode="&#xe1;" horiz-adv-x="995" 
d="M102 760v20q0 134 103 203.5t301 69.5q196 0 287.5 -72t91.5 -227v-512q0 -68 5 -128.5t15 -113.5h-256l-22 117q-39 -56 -115.5 -90.5t-161.5 -34.5q-127 0 -201.5 86.5t-74.5 234.5q0 173 108 256.5t348 96.5h91v47q0 106 -26.5 149t-88.5 43q-68 0 -102.5 -36.5
t-34.5 -108.5h-267zM621 510q-155 0 -214 -41.5t-59 -146.5q0 -76 29.5 -118t81.5 -42q78 0 120 66.5t42 191.5v90zM821 1526l-313 -369h-142l197 369h258z" />
    <glyph glyph-name="agrave" unicode="&#xe0;" horiz-adv-x="995" 
d="M102 760v20q0 134 103 203.5t301 69.5q196 0 287.5 -72t91.5 -227v-512q0 -68 5 -128.5t15 -113.5h-256l-22 117q-39 -56 -115.5 -90.5t-161.5 -34.5q-127 0 -201.5 86.5t-74.5 234.5q0 173 108 256.5t348 96.5h91v47q0 106 -26.5 149t-88.5 43q-68 0 -102.5 -36.5
t-34.5 -108.5h-267zM621 510q-155 0 -214 -41.5t-59 -146.5q0 -76 29.5 -118t81.5 -42q78 0 120 66.5t42 191.5v90zM235 1526h258l197 -369h-142z" />
    <glyph glyph-name="acircumflex" unicode="&#xe2;" horiz-adv-x="995" 
d="M102 760v20q0 134 103 203.5t301 69.5q196 0 287.5 -72t91.5 -227v-512q0 -68 5 -128.5t15 -113.5h-256l-22 117q-39 -56 -115.5 -90.5t-161.5 -34.5q-127 0 -201.5 86.5t-74.5 234.5q0 173 108 256.5t348 96.5h91v47q0 106 -26.5 149t-88.5 43q-68 0 -102.5 -36.5
t-34.5 -108.5h-267zM621 510q-155 0 -214 -41.5t-59 -146.5q0 -76 29.5 -118t81.5 -42q78 0 120 66.5t42 191.5v90zM213 1157l196 369h238l196 -369h-141l-174 217l-176 -217h-139z" />
    <glyph glyph-name="adieresis" unicode="&#xe4;" horiz-adv-x="995" 
d="M102 760v20q0 134 103 203.5t301 69.5q196 0 287.5 -72t91.5 -227v-512q0 -68 5 -128.5t15 -113.5h-256l-22 117q-39 -56 -115.5 -90.5t-161.5 -34.5q-127 0 -201.5 86.5t-74.5 234.5q0 173 108 256.5t348 96.5h91v47q0 106 -26.5 149t-88.5 43q-68 0 -102.5 -36.5
t-34.5 -108.5h-267zM621 510q-155 0 -214 -41.5t-59 -146.5q0 -76 29.5 -118t81.5 -42q78 0 120 66.5t42 191.5v90zM589 1217v243h226v-243h-226zM241 1217v243h226v-243h-226z" />
    <glyph glyph-name="atilde" unicode="&#xe3;" horiz-adv-x="995" 
d="M102 760v20q0 134 103 203.5t301 69.5q196 0 287.5 -72t91.5 -227v-512q0 -68 5 -128.5t15 -113.5h-256l-22 117q-39 -56 -115.5 -90.5t-161.5 -34.5q-127 0 -201.5 86.5t-74.5 234.5q0 173 108 256.5t348 96.5h91v47q0 106 -26.5 149t-88.5 43q-68 0 -102.5 -36.5
t-34.5 -108.5h-267zM621 510q-155 0 -214 -41.5t-59 -146.5q0 -76 29.5 -118t81.5 -42q78 0 120 66.5t42 191.5v90zM823 1475q-25 -124 -72.5 -182t-122.5 -58q-19 0 -35 2.5t-32 7.5l-83 27q-16 5 -31.5 7.5t-29.5 2.5q-31 0 -48.5 -19.5t-25.5 -62.5h-110q23 124 69.5 182
t121.5 58q18 0 39.5 -4t42.5 -11l83 -24q12 -4 24 -6t28 -2q29 0 47 20t24 62h111z" />
    <glyph glyph-name="aring" unicode="&#xe5;" horiz-adv-x="995" 
d="M387 1374q0 -54 35.5 -89.5t89.5 -35.5q53 0 90 36t37 89t-37 90t-90 37t-89 -36.5t-36 -90.5zM246 1376q0 111 77 187.5t189 76.5t189 -76.5t77 -187.5q0 -112 -77 -189t-189 -77t-189 77t-77 189zM621 510q-155 0 -214 -41.5t-59 -146.5q0 -76 29.5 -118t81.5 -42
q78 0 120 66.5t42 191.5v90zM102 760v20q0 134 103 203.5t301 69.5q196 0 287.5 -72t91.5 -227v-512q0 -68 5 -128.5t15 -113.5h-256l-22 117q-39 -56 -115.5 -90.5t-161.5 -34.5q-127 0 -201.5 86.5t-74.5 234.5q0 173 108 256.5t348 96.5h91v47q0 106 -26.5 149t-88.5 43
q-68 0 -102.5 -36.5t-34.5 -108.5h-267z" />
    <glyph glyph-name="ccedilla" unicode="&#xe7;" horiz-adv-x="995" 
d="M637 381h287q0 -202 -104.5 -303t-313.5 -101q-239 0 -332.5 119t-93.5 441q0 277 99 396.5t327 119.5q200 0 309 -98.5t109 -278.5v-10h-287v10q0 99 -33 147.5t-100 48.5q-76 0 -104.5 -68t-28.5 -280q0 -217 29.5 -292.5t105.5 -75.5q63 0 97 53t34 153v19zM217 -438
v129q81 -21 146 -32t110 -11q53 0 77 17.5t24 55.5t-28 54t-93 16q-23 0 -35 -0.5t-22 -1.5v211h102v-90h14q118 0 177 -48t59 -143q0 -100 -66 -150t-198 -50q-52 0 -120 11t-147 32z" />
    <glyph glyph-name="eacute" unicode="&#xe9;" horiz-adv-x="995" 
d="M375 645h258v86q0 73 -33.5 113.5t-93.5 40.5q-65 0 -98 -51.5t-33 -153.5v-35zM637 381h287q0 -202 -104.5 -303t-313.5 -101q-239 0 -332.5 119t-93.5 441q0 277 99 396.5t327 119.5q212 0 315 -102.5t103 -311.5v-156h-549v-106q0 -116 30.5 -168.5t98.5 -52.5
q65 0 99 52.5t34 153.5v19zM805 1526l-313 -369h-142l197 369h258z" />
    <glyph glyph-name="egrave" unicode="&#xe8;" horiz-adv-x="995" 
d="M375 645h258v86q0 73 -33.5 113.5t-93.5 40.5q-65 0 -98 -51.5t-33 -153.5v-35zM637 381h287q0 -202 -104.5 -303t-313.5 -101q-239 0 -332.5 119t-93.5 441q0 277 99 396.5t327 119.5q212 0 315 -102.5t103 -311.5v-156h-549v-106q0 -116 30.5 -168.5t98.5 -52.5
q65 0 99 52.5t34 153.5v19zM219 1526h258l197 -369h-142z" />
    <glyph glyph-name="ecircumflex" unicode="&#xea;" horiz-adv-x="995" 
d="M375 645h258v86q0 73 -33.5 113.5t-93.5 40.5q-65 0 -98 -51.5t-33 -153.5v-35zM637 381h287q0 -202 -104.5 -303t-313.5 -101q-239 0 -332.5 119t-93.5 441q0 277 99 396.5t327 119.5q212 0 315 -102.5t103 -311.5v-156h-549v-106q0 -116 30.5 -168.5t98.5 -52.5
q65 0 99 52.5t34 153.5v19zM197 1157l196 369h238l196 -369h-141l-174 217l-176 -217h-139z" />
    <glyph glyph-name="edieresis" unicode="&#xeb;" horiz-adv-x="995" 
d="M375 645h258v86q0 73 -33.5 113.5t-93.5 40.5q-65 0 -98 -51.5t-33 -153.5v-35zM637 381h287q0 -202 -104.5 -303t-313.5 -101q-239 0 -332.5 119t-93.5 441q0 277 99 396.5t327 119.5q212 0 315 -102.5t103 -311.5v-156h-549v-106q0 -116 30.5 -168.5t98.5 -52.5
q65 0 99 52.5t34 153.5v19zM573 1217v243h226v-243h-226zM225 1217v243h226v-243h-226z" />
    <glyph glyph-name="iacute" unicode="&#xed;" horiz-adv-x="485" 
d="M387 1028v-1028h-289v1028h289zM537 1526l-313 -369h-142l197 369h258z" />
    <glyph glyph-name="igrave" unicode="&#xec;" horiz-adv-x="485" 
d="M387 1028v-1028h-289v1028h289zM-49 1526h258l197 -369h-142z" />
    <glyph glyph-name="icircumflex" unicode="&#xee;" horiz-adv-x="485" 
d="M387 1028v-1028h-289v1028h289zM-71 1157l196 369h238l196 -369h-141l-174 217l-176 -217h-139z" />
    <glyph glyph-name="idieresis" unicode="&#xef;" horiz-adv-x="485" 
d="M387 1028v-1028h-289v1028h289zM305 1217v243h226v-243h-226zM-43 1217v243h226v-243h-226z" />
    <glyph glyph-name="ntilde" unicode="&#xf1;" horiz-adv-x="1008" 
d="M395 0h-289v844q0 71 -2 109.5t-7 74.5h290l8 -106q35 64 93.5 97.5t136.5 33.5q135 0 206.5 -69.5t71.5 -201.5v-782h-289v702q0 100 -21.5 137.5t-74.5 37.5q-56 0 -89.5 -39.5t-33.5 -106.5v-731zM799 1475q-25 -124 -72.5 -182t-122.5 -58q-19 0 -35 2.5t-32 7.5
l-83 27q-16 5 -31.5 7.5t-29.5 2.5q-31 0 -48.5 -19.5t-25.5 -62.5h-110q23 124 69.5 182t121.5 58q18 0 39.5 -4t42.5 -11l83 -24q12 -4 24 -6t28 -2q29 0 47 20t24 62h111z" />
    <glyph glyph-name="oacute" unicode="&#xf3;" 
d="M512 1053q223 0 320.5 -119.5t97.5 -396.5q0 -323 -93 -441.5t-331 -118.5q-239 0 -332.5 119t-93.5 441q0 279 100 397.5t332 118.5zM371 524q0 -217 29.5 -292.5t105.5 -75.5t105.5 75.5t29.5 292.5q0 213 -29.5 280.5t-107.5 67.5q-76 0 -104.5 -68t-28.5 -280z
M799 1526l-313 -369h-142l197 369h258z" />
    <glyph glyph-name="ograve" unicode="&#xf2;" 
d="M512 1053q223 0 320.5 -119.5t97.5 -396.5q0 -323 -93 -441.5t-331 -118.5q-239 0 -332.5 119t-93.5 441q0 279 100 397.5t332 118.5zM371 524q0 -217 29.5 -292.5t105.5 -75.5t105.5 75.5t29.5 292.5q0 213 -29.5 280.5t-107.5 67.5q-76 0 -104.5 -68t-28.5 -280z
M213 1526h258l197 -369h-142z" />
    <glyph glyph-name="ocircumflex" unicode="&#xf4;" 
d="M512 1053q223 0 320.5 -119.5t97.5 -396.5q0 -323 -93 -441.5t-331 -118.5q-239 0 -332.5 119t-93.5 441q0 279 100 397.5t332 118.5zM371 524q0 -217 29.5 -292.5t105.5 -75.5t105.5 75.5t29.5 292.5q0 213 -29.5 280.5t-107.5 67.5q-76 0 -104.5 -68t-28.5 -280z
M191 1157l196 369h238l196 -369h-141l-174 217l-176 -217h-139z" />
    <glyph glyph-name="odieresis" unicode="&#xf6;" 
d="M512 1053q223 0 320.5 -119.5t97.5 -396.5q0 -323 -93 -441.5t-331 -118.5q-239 0 -332.5 119t-93.5 441q0 279 100 397.5t332 118.5zM371 524q0 -217 29.5 -292.5t105.5 -75.5t105.5 75.5t29.5 292.5q0 213 -29.5 280.5t-107.5 67.5q-76 0 -104.5 -68t-28.5 -280z
M567 1217v243h226v-243h-226zM219 1217v243h226v-243h-226z" />
    <glyph glyph-name="otilde" unicode="&#xf5;" 
d="M512 1053q223 0 320.5 -119.5t97.5 -396.5q0 -323 -93 -441.5t-331 -118.5q-239 0 -332.5 119t-93.5 441q0 279 100 397.5t332 118.5zM371 524q0 -217 29.5 -292.5t105.5 -75.5t105.5 75.5t29.5 292.5q0 213 -29.5 280.5t-107.5 67.5q-76 0 -104.5 -68t-28.5 -280z
M801 1475q-25 -124 -72.5 -182t-122.5 -58q-19 0 -35 2.5t-32 7.5l-83 27q-16 5 -31.5 7.5t-29.5 2.5q-31 0 -48.5 -19.5t-25.5 -62.5h-110q23 124 69.5 182t121.5 58q18 0 39.5 -4t42.5 -11l83 -24q12 -4 24 -6t28 -2q29 0 47 20t24 62h111z" />
    <glyph glyph-name="uacute" unicode="&#xfa;" horiz-adv-x="1008" 
d="M608 1028h291v-891q0 -52 2 -80.5t6 -54.5h-289l-10 109q-36 -66 -93.5 -100t-133.5 -34q-135 0 -207 70.5t-72 202.5v778h289v-700q0 -102 21 -138t73 -36q56 0 89.5 39t33.5 106v729zM797 1526l-313 -369h-142l197 369h258z" />
    <glyph glyph-name="ugrave" unicode="&#xf9;" horiz-adv-x="1008" 
d="M608 1028h291v-891q0 -52 2 -80.5t6 -54.5h-289l-10 109q-36 -66 -93.5 -100t-133.5 -34q-135 0 -207 70.5t-72 202.5v778h289v-700q0 -102 21 -138t73 -36q56 0 89.5 39t33.5 106v729zM211 1526h258l197 -369h-142z" />
    <glyph glyph-name="ucircumflex" unicode="&#xfb;" horiz-adv-x="1008" 
d="M608 1028h291v-891q0 -52 2 -80.5t6 -54.5h-289l-10 109q-36 -66 -93.5 -100t-133.5 -34q-135 0 -207 70.5t-72 202.5v778h289v-700q0 -102 21 -138t73 -36q56 0 89.5 39t33.5 106v729zM189 1157l196 369h238l196 -369h-141l-174 217l-176 -217h-139z" />
    <glyph glyph-name="udieresis" unicode="&#xfc;" horiz-adv-x="1008" 
d="M608 1028h291v-891q0 -52 2 -80.5t6 -54.5h-289l-10 109q-36 -66 -93.5 -100t-133.5 -34q-135 0 -207 70.5t-72 202.5v778h289v-700q0 -102 21 -138t73 -36q56 0 89.5 39t33.5 106v729zM565 1217v243h226v-243h-226zM217 1217v243h226v-243h-226z" />
    <glyph glyph-name="dagger" unicode="&#x2020;" 
d="M389 0v958h-319v199h319v318h229v-318h320v-199h-320v-958h-229z" />
    <glyph glyph-name="degree" unicode="&#xb0;" horiz-adv-x="674" 
d="M338 1335q-73 0 -124.5 -51t-51.5 -123q0 -74 51 -125t125 -51q72 0 123 52t51 124t-51 123t-123 51zM338 1464q126 0 214.5 -89.5t88.5 -215.5q0 -125 -89 -214t-216 -89q-126 0 -213.5 88t-87.5 215t88.5 216t214.5 89z" />
    <glyph glyph-name="cent" unicode="&#xa2;" 
d="M379 227l169 650q-9 2 -20 3t-30 1q-85 0 -117.5 -73.5t-32.5 -297.5q0 -84 7.5 -153.5t23.5 -129.5zM664 666v14q0 42 -8.5 76t-24.5 63l-172 -667q13 -3 27 -5t26 -2q73 0 112.5 55.5t39.5 159.5v15v6h260v-6q0 -193 -103.5 -295.5t-298.5 -102.5q-32 0 -54 1t-44 4
l-49 -168h-109l45 190q-127 45 -179 159t-52 374q0 275 96.5 394.5t317.5 119.5q26 0 81 -4h7l45 172h114l-47 -197q117 -41 173.5 -127t56.5 -221v-8h-260z" />
    <glyph glyph-name="sterling" unicode="&#xa3;" 
d="M72 0v209h127v450h-127v205h127v142q0 129 13.5 192t45.5 113q45 69 123 105t184 36q168 0 254 -82.5t86 -243.5v-32h-223q-2 84 -30 120.5t-91 36.5q-58 0 -82 -33t-24 -143v-211h250v-205h-250v-450h448v-209h-831z" />
    <glyph glyph-name="section" unicode="&#xa7;" 
d="M129 39v244q105 -45 182.5 -65.5t137.5 -20.5q57 0 90.5 24t33.5 66q0 60 -154 121q-71 28 -112 47q-100 46 -149 109t-49 145q0 78 49.5 147.5t142.5 122.5q-72 49 -107.5 108t-35.5 130q0 125 99 202.5t261 77.5q79 0 161.5 -15t172.5 -46v-236q-112 49 -181 69.5
t-118 20.5q-51 0 -81 -21.5t-30 -58.5q0 -58 127 -114q50 -23 78 -37q149 -73 201.5 -134t52.5 -147q0 -68 -38 -128.5t-132 -137.5q79 -55 114.5 -110.5t35.5 -122.5q0 -145 -115 -224.5t-326 -79.5q-86 0 -163.5 16t-147.5 48zM526 608q67 40 91 71t24 71q0 43 -26.5 75
t-102.5 74q-77 -25 -109 -58.5t-32 -84.5q0 -52 36.5 -87t118.5 -61z" />
    <glyph glyph-name="bullet" unicode="&#x2022;" horiz-adv-x="1208" 
d="M307 762q0 123 87 209t210 86q122 0 208.5 -86.5t86.5 -208.5t-87.5 -209.5t-209.5 -87.5q-123 0 -209 87t-86 210z" />
    <glyph glyph-name="paragraph" unicode="&#xb6;" horiz-adv-x="1024" 
d="M983 1479v-111h-113v-1368h-151v1368h-158v-1368h-153v784q-167 6 -267 101t-100 245q0 158 107 253.5t284 95.5h551z" />
    <glyph glyph-name="germandbls" unicode="&#xdf;" horiz-adv-x="1087" 
d="M96 0v1079q0 215 111 314.5t350 99.5q192 0 294.5 -78t102.5 -225q0 -57 -18.5 -103t-69.5 -106q-11 -13 -33 -36q-61 -66 -61 -105q0 -59 174 -245l17 -17q50 -54 74 -112.5t24 -129.5q0 -166 -105 -256t-299 -90q-29 0 -62 2.5t-73 8.5v197q24 -2 47 -3.5t43 -1.5
q92 0 137.5 28.5t45.5 87.5q0 69 -132 220q-20 22 -30 34l-12 14q-123 141 -123 209q0 65 69 145l17 20q69 81 89.5 126.5t20.5 93.5q0 62 -43.5 105t-107.5 43q-36 0 -68.5 -13.5t-52.5 -35.5q-22 -23 -31.5 -58.5t-9.5 -107.5v-78v-1026h-285z" />
    <glyph glyph-name="registered" unicode="&#xae;" horiz-adv-x="1706" 
d="M745 1034v-239h99q88 0 129 28t41 88q0 63 -44 93t-136 30h-89zM545 1161h323q176 0 264.5 -59.5t88.5 -177.5q0 -82 -48 -140t-133 -79l185 -369h-224l-157 338h-99v-338h-200v825zM854 1356q-127 0 -236 -44.5t-196 -131.5q-91 -91 -140 -206.5t-49 -238.5
q0 -124 46 -235.5t133 -198.5q89 -91 203 -139.5t237 -48.5q120 0 233.5 47t206.5 135q87 84 135 196t48 232q0 133 -44.5 245t-132.5 201q-90 93 -202.5 140t-241.5 47zM852 1479q154 0 290.5 -57.5t243.5 -166.5q103 -104 157 -238t54 -284q0 -152 -56 -287.5t-163 -238.5
q-107 -105 -243.5 -161t-282.5 -56q-149 0 -285 58t-243 167q-104 105 -158.5 238.5t-54.5 279.5q0 102 27 198.5t81 188.5q101 170 267 264.5t366 94.5z" />
    <glyph glyph-name="copyright" unicode="&#xa9;" horiz-adv-x="1706" 
d="M1212 897h-188q-8 70 -53 108.5t-119 38.5q-91 0 -143 -81.5t-52 -227.5q0 -147 52 -224t151 -77q73 0 117 42t53 119l193 1q-8 -139 -109 -223t-260 -84q-186 0 -293.5 118t-107.5 322q0 206 109.5 328.5t293.5 122.5q152 0 250.5 -78t105.5 -205zM854 1356
q-128 0 -239.5 -46t-198.5 -134q-89 -90 -136 -203.5t-47 -237.5q0 -125 47 -237t136 -201q88 -88 201 -135t237 -47t237.5 47t204.5 137q88 86 133.5 197t45.5 239q0 126 -46.5 238.5t-134.5 200.5q-89 89 -201 135.5t-239 46.5zM852 1479q152 0 287.5 -56t242.5 -163
q105 -105 160 -240.5t55 -286.5q0 -152 -54.5 -284t-160.5 -236q-111 -108 -248 -165.5t-282 -57.5q-147 0 -280.5 56.5t-241.5 164.5q-107 106 -163 240.5t-56 281.5q0 149 56 284.5t163 244.5q105 106 238 161.5t284 55.5z" />
    <glyph glyph-name="trademark" unicode="&#x2122;" horiz-adv-x="1706" 
d="M803 1462h196l127 -332l123 332h197v-547h-135v410l-154 -410h-61l-158 410v-410h-135v547zM207 1462h485v-112h-168v-435h-149v435h-168v112z" />
    <glyph glyph-name="acute" unicode="&#xb4;" horiz-adv-x="1024" 
d="M805 1526l-313 -369h-142l197 369h258z" />
    <glyph glyph-name="dieresis" unicode="&#xa8;" horiz-adv-x="1024" 
d="M573 1217v243h226v-243h-226zM225 1217v243h226v-243h-226z" />
    <glyph glyph-name="notequal" unicode="&#x2260;" horiz-adv-x="1706" 
d="M1198 1233l148 -119l-154 -192h260v-191h-389l-191 -239h580v-193h-707l-245 -309l-148 119l154 190h-252v193h377l190 239h-567v191h696z" />
    <glyph glyph-name="AE" unicode="&#xc6;" horiz-adv-x="1569" 
d="M786 0l-51 322h-385l-78 -322h-286l372 1475h1115v-224h-605l62 -356h506v-227h-463l78 -430h440v-238h-705zM580 1294l-179 -745h295z" />
    <glyph glyph-name="Oslash" unicode="&#xd8;" horiz-adv-x="1214" 
d="M793 872l-351 -524q14 -66 57 -103.5t105 -37.5q107 0 150 99t43 364q0 55 -4 185v17zM418 530l362 540q-4 93 -48.5 143.5t-123.5 50.5q-110 0 -151 -105t-41 -461l1 -56t1 -112zM281 74l-121 -172l-127 84l147 217q-38 77 -54.5 204t-16.5 375q0 399 115.5 558
t393.5 159q112 0 195 -32t143 -99l113 158l125 -84l-145 -215q30 -69 43.5 -176.5t13.5 -284.5q0 -273 -24 -402.5t-81 -216.5q-53 -80 -155 -125t-232 -45q-108 0 -193.5 25t-139.5 72z" />
    <glyph glyph-name="infinity" unicode="&#x221e;" horiz-adv-x="1706" 
d="M942 561q45 -75 106.5 -113t139.5 -38q94 0 152.5 55.5t58.5 144.5q0 87 -54 143t-135 56q-75 0 -138 -57.5t-130 -190.5zM766 659q-44 75 -105.5 112.5t-140.5 37.5q-94 0 -152.5 -56t-58.5 -145q0 -85 54 -141.5t135 -56.5q75 0 138 58t130 191zM858 457
q-68 -132 -146.5 -195t-174.5 -63q-140 0 -236 117.5t-96 293.5q0 184 85.5 297t223.5 113q92 0 170 -60t164 -198q68 132 148 196t175 64q139 0 235.5 -118.5t96.5 -293.5q0 -183 -86 -296t-223 -113q-93 0 -170.5 58.5t-165.5 197.5z" />
    <glyph glyph-name="plusminus" unicode="&#xb1;" horiz-adv-x="1706" 
d="M254 197h1198v-199h-1198v199zM752 1223h202v-326h498v-199h-498v-325h-202v325h-498v199h498v326z" />
    <glyph glyph-name="lessequal" unicode="&#x2264;" horiz-adv-x="1706" 
d="M258 195h1192v-197h-1192v197zM1448 1241v-209l-834 -264l834 -262v-209l-1190 385v174z" />
    <glyph glyph-name="greaterequal" unicode="&#x2265;" horiz-adv-x="1706" 
d="M258 195h1192v-197h-1192v197zM260 1241l1188 -385v-174l-1188 -385v209l832 262l-832 264v209z" />
    <glyph glyph-name="yen" unicode="&#xa5;" 
d="M1044 1427l-188 -407h143v-154h-211l-83 -176h294v-153h-358v-537h-283v537h-346v153h283l-74 176h-209v154h144l-170 407h321l207 -593l227 593h303z" />
    <glyph glyph-name="mu" unicode="&#xb5;" horiz-adv-x="1249" 
d="M205 1092h289l-76 -435q-15 -80 -23 -151.5t-8 -116.5q0 -93 42 -138.5t128 -45.5q100 0 155.5 82t92.5 291l90 514h289l-193 -1092h-268l18 117q-42 -78 -93.5 -114t-121.5 -36q-67 0 -119 29.5t-94 91.5l-90 -526h-286z" />
    <glyph glyph-name="partialdiff" unicode="&#x2202;" horiz-adv-x="1094" 
d="M762 662q19 99 29 188.5t10 155.5q0 100 -26 157.5t-70 57.5t-146 -73t-160 -73q-42 0 -71 30t-29 73q0 64 86.5 118t210.5 54q192 0 309 -161.5t117 -432.5q0 -339 -156.5 -560t-396.5 -221q-171 0 -282 114.5t-111 291.5q0 198 116 329.5t287 131.5q102 0 170 -43.5
t113 -136.5zM700 518q0 116 -38.5 178t-110.5 62q-101 0 -167.5 -134t-66.5 -341q0 -117 38.5 -177.5t111.5 -60.5q101 0 167 133.5t66 339.5z" />
    <glyph glyph-name="summation" unicode="&#x2211;" horiz-adv-x="1470" 
d="M66 1473h1308v-265h-878l620 -645l-622 -690h933v-266h-1386v172l698 772l-673 690v232z" />
    <glyph glyph-name="product" unicode="&#x220f;" horiz-adv-x="1612" 
d="M150 1473h1308v-1866h-344v1577h-620v-1577h-344v1866z" />
    <glyph glyph-name="pi" unicode="&#x3c0;" horiz-adv-x="1319" 
d="M1354 1092l-39 -224h-176l-154 -868h-287l152 868h-238l-151 -868h-287l152 868h-25q-55 0 -84 -31t-39 -99l-213 -1q29 199 123 277t311 78h955z" />
    <glyph glyph-name="integral" unicode="&#x222b;" horiz-adv-x="1186" 
d="M342 -252q102 0 121 639q3 136 6 211q16 508 123 732t328 224q98 0 157.5 -49t59.5 -129q0 -60 -38 -96.5t-100 -36.5q-46 0 -77 24t-41 68q-5 20 -7 54q-3 46 -30 47q-99 0 -119 -633l-6 -178q-11 -296 -31 -444.5t-59 -250.5q-56 -148 -148.5 -225.5t-214.5 -77.5
q-96 0 -156.5 49t-60.5 127q0 62 39 99t105 37q50 0 85 -31.5t35 -71.5q0 -58 6 -73t23 -15z" />
    <glyph glyph-name="ordfeminine" unicode="&#xaa;" horiz-adv-x="748" 
d="M78 1286v14q0 94 77 142.5t224 48.5t216 -50.5t69 -158.5v-358q0 -52 4 -94t12 -76h-193l-16 82q-30 -40 -87.5 -64t-121.5 -24q-95 0 -151 60.5t-56 164.5q0 121 81 179.5t261 68.5h68v32q0 75 -19.5 104t-66.5 29q-51 0 -77 -25t-26 -75h-198zM465 1110
q-116 0 -159.5 -29t-43.5 -102q0 -53 21.5 -83t60.5 -30q58 0 89.5 47t31.5 136v61z" />
    <glyph glyph-name="ordmasculine" unicode="&#xba;" horiz-adv-x="758" 
d="M385 1491q166 0 239.5 -84t73.5 -279q0 -224 -70 -307.5t-249 -83.5q-178 0 -249 83.5t-71 307.5q0 196 75.5 279.5t250.5 83.5zM279 1120q0 -152 21.5 -205t78.5 -53q58 0 80 53t22 205q0 148 -21.5 196t-80.5 48q-57 0 -78.5 -48.5t-21.5 -195.5z" />
    <glyph glyph-name="Omega" unicode="&#x3a9;" horiz-adv-x="1575" 
d="M1227 256h291v-256h-609v291q126 86 192 217.5t66 296.5q0 203 -101.5 319.5t-279.5 116.5q-177 0 -278.5 -116.5t-101.5 -319.5q0 -164 66 -296.5t192 -217.5v-291h-609v256h291q-126 121 -187 260t-61 303q0 313 188 501.5t500 188.5q313 0 501 -188.5t188 -501.5
q0 -164 -61 -303t-187 -260z" />
    <glyph glyph-name="ae" unicode="&#xe6;" horiz-adv-x="1516" 
d="M895 483v-106q0 -118 30 -169.5t97 -51.5q66 0 100.5 53t34.5 156v16h287q0 -202 -105 -303t-315 -101q-134 0 -218 36t-130 112q-69 -71 -138.5 -103t-152.5 -32q-146 0 -224.5 83.5t-78.5 239.5q0 173 108 256.5t349 96.5h90v47q0 107 -26.5 149.5t-88.5 42.5
q-67 0 -101 -36.5t-34 -108.5h-266v22q0 131 101 201t290 70q102 0 167 -23t105 -72q51 48 118.5 71.5t156.5 23.5q193 0 293 -105.5t100 -308.5v-156h-549zM1153 645v86q0 73 -33 113.5t-92 40.5q-68 0 -100.5 -51.5t-32.5 -157.5v-31h258zM631 510q-156 0 -214.5 -41.5
t-58.5 -146.5q0 -76 29.5 -118t81.5 -42q78 0 120 66.5t42 191.5v90z" />
    <glyph glyph-name="oslash" unicode="&#xf8;" 
d="M360 383l279 354q0 69 -35 105.5t-100 36.5q-82 0 -114 -66.5t-32 -255.5q0 -66 0.5 -102.5t1.5 -71.5zM651 610l-274 -348q9 -54 43 -84.5t86 -30.5q82 0 113.5 75.5t31.5 301.5v86zM27 -20l125 151q-38 52 -54 142.5t-16 275.5q0 270 99 387t325 117q96 0 169.5 -24
t131.5 -75l102 125l82 -65l-114 -148q27 -47 39 -123.5t12 -220.5q0 -309 -94.5 -428t-327.5 -119q-99 0 -164.5 17t-118.5 55l-108 -131z" />
    <glyph glyph-name="questiondown" unicode="&#xbf;" horiz-adv-x="854" 
d="M551 1475v-246h-234v246h234zM541 1073v-145q0 -73 -12.5 -123t-41.5 -109q-23 -47 -72 -130q-98 -161 -98 -249q0 -66 29.5 -103.5t81.5 -37.5q65 0 94 50.5t29 166.5h252q1 -9 1.5 -18.5t0.5 -28.5q0 -179 -98 -277t-277 -98q-180 0 -279.5 91t-99.5 255q0 191 177 408
l12 15q3 3 10 12q82 98 82 204v117h209z" />
    <glyph glyph-name="exclamdown" unicode="&#xa1;" horiz-adv-x="664" 
d="M449 1475v-246h-234v246h234zM436 1079l35 -1079h-278l32 1079h211z" />
    <glyph glyph-name="logicalnot" unicode="&#xac;" horiz-adv-x="1706" 
d="M254 864h1198v-502h-199v306h-999v196z" />
    <glyph glyph-name="radical" unicode="&#x221a;" horiz-adv-x="1346" 
d="M1141 1694h207v-129h-103l-592 -1606h-100l-311 858l-140 -51l-30 113l331 116l236 -661z" />
    <glyph glyph-name="florin" unicode="&#x192;" 
d="M444 1049q3 10 7 29q47 225 112 290q43 43 108 63.5t158 20.5q34 0 72.5 -2.5t83.5 -7.5l-41 -195q-9 1 -19 1.5t-28 0.5q-120 0 -171 -225l-1 -4l-41 -186h180l-45 -213h-182l-143 -646q-38 -167 -62.5 -227t-58.5 -94q-41 -42 -109.5 -62t-175.5 -20q-37 0 -122 7
q-9 1 -13 1l41 194q9 0 19 -0.5t28 -0.5q69 0 103 37t69 192l137 619h-203l46 213h204z" />
    <glyph glyph-name="approxequal" unicode="&#x2248;" horiz-adv-x="1706" 
d="M1530 596v-219q-106 -72 -198 -105.5t-181 -33.5q-95 0 -286.5 66.5t-301.5 66.5q-84 0 -174.5 -37t-210.5 -121v219q111 73 206.5 108t180.5 35q124 0 315.5 -65.5t274.5 -65.5q86 0 174 35.5t201 116.5zM1530 1008v-220q-106 -71 -196.5 -104t-180.5 -33
q-94 0 -286 65.5t-304 65.5q-82 0 -170 -35t-215 -122v219q107 71 204 107t183 36q125 0 316.5 -65.5t273.5 -65.5q84 0 171 35t204 117z" />
    <glyph glyph-name="Delta" unicode="&#x2206;" horiz-adv-x="1427" 
d="M713 1110l-326 -854h653zM563 1473h301l563 -1473h-1427z" />
    <glyph glyph-name="guillemotleft" unicode="&#xab;" horiz-adv-x="952" 
d="M629 127l-187 379l187 395h237l-178 -395l178 -379h-237zM276 127l-190 379l190 395h232l-174 -395l174 -379h-232z" />
    <glyph glyph-name="guillemotright" unicode="&#xbb;" horiz-adv-x="952" 
d="M324 127h-238l178 379l-178 395h238l186 -395zM676 127h-232l174 379l-174 395h232l190 -395z" />
    <glyph glyph-name="ellipsis" unicode="&#x2026;" horiz-adv-x="2048" 
d="M217 0v274h246v-274h-246zM899 0v274h246v-274h-246zM1583 0v274h246v-274h-246z" />
    <glyph glyph-name="nonbreakingspace" unicode="&#xa0;" 
 />
    <glyph glyph-name="Agrave" unicode="&#xc0;" horiz-adv-x="1262" 
d="M465 555h315l-153 639zM915 0l-79 328h-428l-78 -328h-310l416 1475h393l410 -1475h-324zM338 1972h258l197 -369h-142z" />
    <glyph glyph-name="Atilde" unicode="&#xc3;" horiz-adv-x="1262" 
d="M465 555h315l-153 639zM915 0l-79 328h-428l-78 -328h-310l416 1475h393l410 -1475h-324zM926 1921q-25 -124 -72.5 -182t-122.5 -58q-19 0 -35 2.5t-32 7.5l-83 27q-16 5 -31.5 7.5t-29.5 2.5q-31 0 -48.5 -19.5t-25.5 -62.5h-110q23 124 69.5 182t121.5 58
q18 0 39.5 -4t42.5 -11l83 -24q12 -4 24 -6t28 -2q29 0 47 20t24 62h111z" />
    <glyph glyph-name="Otilde" unicode="&#xd5;" horiz-adv-x="1214" 
d="M608 -23q-102 0 -190.5 27t-141.5 74q-91 79 -130.5 229t-39.5 447q0 230 24 359t79 210q54 82 156.5 126t240.5 44q106 0 194 -27.5t144 -76.5q87 -77 124.5 -213.5t37.5 -403.5q0 -278 -24 -407.5t-81 -214.5q-54 -82 -157 -127.5t-236 -45.5zM416 741q0 -326 41 -430
t147 -104q110 0 151.5 100.5t41.5 448.5q0 308 -41 408t-148 100q-109 0 -150.5 -102t-41.5 -421zM903 1921q-25 -124 -72.5 -182t-122.5 -58q-19 0 -35 2.5t-32 7.5l-83 27q-16 5 -31.5 7.5t-29.5 2.5q-31 0 -48.5 -19.5t-25.5 -62.5h-110q23 124 69.5 182t121.5 58
q18 0 39.5 -4t42.5 -11l83 -24q12 -4 24 -6t28 -2q29 0 47 20t24 62h111z" />
    <glyph glyph-name="OE" unicode="&#x152;" horiz-adv-x="1720" 
d="M836 1245h-125q-97 0 -138 -9.5t-69 -33.5q-47 -40 -66.5 -131.5t-19.5 -300.5q0 -252 12 -334t41 -123q30 -42 73 -58.5t167 -16.5h125v1007zM1591 895v-227h-444v-430h502v-238h-815q-35 0 -100 -5t-95 -5q-122 0 -213 24.5t-150 73.5q-92 79 -129.5 222.5t-37.5 463.5
q0 225 23 344t77 199q59 88 157.5 128t260.5 40q27 0 96 -5t111 -5h796v-230h-483v-350h444z" />
    <glyph glyph-name="oe" unicode="&#x153;" horiz-adv-x="1548" 
d="M780 88q-57 -58 -125 -84.5t-159 -26.5q-231 0 -323.5 121t-92.5 439q0 278 98.5 397t327.5 119q91 0 160.5 -26.5t121.5 -80.5q62 56 132 81.5t161 25.5q198 0 298 -104.5t100 -309.5v-156h-551v-106q0 -116 30.5 -168.5t98.5 -52.5q65 0 99 52.5t34 153.5v19h289v-10
q0 -189 -104 -291.5t-298 -102.5q-99 0 -172 27.5t-125 83.5zM1188 645v86q0 71 -33.5 111.5t-91.5 40.5q-69 0 -101 -49.5t-32 -157.5v-31h258zM369 524q0 -212 32.5 -290t114.5 -78t114 75.5t32 292.5q0 213 -31.5 280.5t-116.5 67.5q-83 0 -114 -68.5t-31 -279.5z" />
    <glyph glyph-name="endash" unicode="&#x2013;" horiz-adv-x="1024" 
d="M0 412v204h1024v-204h-1024z" />
    <glyph glyph-name="emdash" unicode="&#x2014;" horiz-adv-x="2048" 
d="M0 616h2048v-204h-2048v204z" />
    <glyph glyph-name="quotedblleft" unicode="&#x201c;" horiz-adv-x="801" 
d="M387 1475l-59 -396h-265l144 396h180zM735 1475l-59 -396h-262l141 396h180z" />
    <glyph glyph-name="quotedblright" unicode="&#x201d;" horiz-adv-x="801" 
d="M412 1079l65 396h260l-139 -396h-186zM63 1079l64 396h260l-139 -396h-185z" />
    <glyph glyph-name="quoteleft" unicode="&#x2018;" horiz-adv-x="451" 
d="M385 1475l-63 -396h-259l140 396h182z" />
    <glyph glyph-name="quoteright" unicode="&#x2019;" horiz-adv-x="451" 
d="M63 1079l72 396h256l-137 -396h-191z" />
    <glyph glyph-name="divide" unicode="&#xf7;" horiz-adv-x="1706" 
d="M854 369q62 0 107 -45t45 -107q0 -61 -45 -105t-107 -44q-63 0 -107.5 43t-44.5 106t44.5 107.5t107.5 44.5zM254 711h1198v-199h-1198v199zM854 1155q62 0 107 -44.5t45 -106.5q0 -63 -44.5 -107.5t-107.5 -44.5t-107.5 44.5t-44.5 107.5t44.5 107t107.5 44z" />
    <glyph glyph-name="lozenge" unicode="&#x25ca;" horiz-adv-x="1012" 
d="M506 1409l-385 -817l385 -825l385 825zM506 1653l500 -1061l-500 -1069l-500 1069z" />
    <glyph glyph-name="ydieresis" unicode="&#xff;" horiz-adv-x="924" 
d="M205 -389l112 364l-299 1053h289l156 -737l184 737h281l-428 -1417h-295zM524 1217v243h226v-243h-226zM176 1217v243h226v-243h-226z" />
    <glyph glyph-name="Ydieresis" unicode="&#x178;" horiz-adv-x="1096" 
d="M375 0v555l-385 920h342l213 -615l237 615h322l-416 -920v-555h-313zM610 1663v243h226v-243h-226zM262 1663v243h226v-243h-226z" />
    <glyph glyph-name="fraction" unicode="&#x2215;" horiz-adv-x="342" 
d="M-342 -25l850 1475h174l-848 -1475h-176z" />
    <glyph glyph-name="currency" unicode="&#xa4;" 
d="M678 416h283v-25q0 -192 -109 -303t-295 -111q-212 0 -319.5 133t-118.5 408h-139l65 146h64v143h-148l66 147h92q7 274 115 406.5t323 132.5q195 0 295 -104t100 -306v-28h-280v30q0 100 -29.5 146.5t-91.5 46.5q-76 0 -112 -78.5t-37 -245.5h362l-66 -147h-297v-143
h234l-66 -146h-168v-39q0 -135 40.5 -210.5t111.5 -75.5q59 0 92 54t33 152v17z" />
    <glyph glyph-name="guilsinglleft" unicode="&#x2039;" horiz-adv-x="545" 
d="M248 127l-187 379l187 395h237l-180 -395l180 -379h-237z" />
    <glyph glyph-name="guilsinglright" unicode="&#x203a;" horiz-adv-x="545" 
d="M297 127h-236l179 379l-179 395h236l188 -395z" />
    <glyph glyph-name="fi" unicode="&#xf001;" horiz-adv-x="1059" 
d="M139 0v858h-145v170h145v172q0 183 68 240t266 57q30 0 63.5 -1.5t71.5 -4.5v-203q-8 1 -18 1.5t-29 0.5q-79 0 -108 -30.5t-29 -120.5v-111h184v-170h-184v-858h-285zM950 1475v-244h-288v244h288zM950 1028v-1028h-288v1028h288z" />
    <glyph glyph-name="fl" unicode="&#xf002;" horiz-adv-x="1059" 
d="M139 0v858h-145v170h145v172q0 183 68 240t266 57q29 0 62 -1.5t71 -4.5v-202q-8 0 -18 0.5t-29 0.5q-78 0 -106.5 -30t-28.5 -121v-111h182v-170h-182v-858h-285zM668 0v1475h284v-1475h-284z" />
    <glyph glyph-name="daggerdbl" unicode="&#x2021;" 
d="M389 0v291h-319v188h319v484h-319v188h319v324h229v-324h320v-188h-320v-484h320v-188h-320v-291h-229z" />
    <glyph glyph-name="periodcentered" unicode="&#xb7;" horiz-adv-x="506" 
d="M102 715q0 61 42 103t104 42q61 0 103 -42t42 -103q0 -62 -42 -104t-103 -42q-62 0 -104 42t-42 104z" />
    <glyph glyph-name="quotesinglbase" unicode="&#x201a;" horiz-adv-x="451" 
d="M29 -197l61 396h260l-139 -396h-182z" />
    <glyph glyph-name="quotedblbase" unicode="&#x201e;" horiz-adv-x="801" 
d="M412 -197l65 396h260l-139 -396h-186zM63 -197l64 396h260l-139 -396h-185z" />
    <glyph glyph-name="perthousand" unicode="&#x2030;" horiz-adv-x="2269" 
d="M1874 158q53 0 77.5 52t24.5 165q0 111 -25 164t-77 53t-76 -52t-24 -165q0 -114 24 -165.5t76 -51.5zM1188 158q53 0 77.5 52t24.5 165q0 111 -25 164t-77 53t-76.5 -52t-24.5 -165q0 -114 24.5 -165.5t76.5 -51.5zM395 860q53 0 78 52.5t25 164.5t-25 164.5t-78 52.5
q-52 0 -76 -52t-24 -165q0 -114 24 -165.5t76 -51.5zM2167 375q0 -190 -72.5 -282.5t-220.5 -92.5t-220.5 92.5t-72.5 282.5q0 189 72 281t221 92t221 -92t72 -281zM1481 375q0 -190 -72.5 -282.5t-220.5 -92.5q-149 0 -221 92.5t-72 282.5q0 189 72 281t221 92t221 -92
t72 -281zM688 1077q0 -189 -72 -282t-221 -93q-148 0 -220.5 93t-72.5 282t72 281t221 92t221 -92t72 -281zM403 -25l601 1475h165l-606 -1475h-160z" />
    <glyph glyph-name="Acircumflex" unicode="&#xc2;" horiz-adv-x="1262" 
d="M465 555h315l-153 639zM915 0l-79 328h-428l-78 -328h-310l416 1475h393l410 -1475h-324zM316 1603l196 369h238l196 -369h-141l-174 217l-176 -217h-139z" />
    <glyph glyph-name="Ecircumflex" unicode="&#xca;" horiz-adv-x="1022" 
d="M131 0v1475h797v-228h-486v-352h447v-227h-447v-430h504v-238h-815zM215 1603l196 369h238l196 -369h-141l-174 217l-176 -217h-139z" />
    <glyph glyph-name="Aacute" unicode="&#xc1;" horiz-adv-x="1262" 
d="M465 555h315l-153 639zM915 0l-79 328h-428l-78 -328h-310l416 1475h393l410 -1475h-324zM924 1972l-313 -369h-142l197 369h258z" />
    <glyph glyph-name="Edieresis" unicode="&#xcb;" horiz-adv-x="1022" 
d="M131 0v1475h797v-228h-486v-352h447v-227h-447v-430h504v-238h-815zM591 1663v243h226v-243h-226zM243 1663v243h226v-243h-226z" />
    <glyph glyph-name="Egrave" unicode="&#xc8;" horiz-adv-x="1022" 
d="M131 0v1475h797v-228h-486v-352h447v-227h-447v-430h504v-238h-815zM237 1972h258l197 -369h-142z" />
    <glyph glyph-name="Iacute" unicode="&#xcd;" horiz-adv-x="569" 
d="M133 0v1475h301v-1475h-301zM578 1972l-313 -369h-142l197 369h258z" />
    <glyph glyph-name="Icircumflex" unicode="&#xce;" horiz-adv-x="569" 
d="M133 0v1475h301v-1475h-301zM-30 1603l196 369h238l196 -369h-141l-174 217l-176 -217h-139z" />
    <glyph glyph-name="Idieresis" unicode="&#xcf;" horiz-adv-x="569" 
d="M133 0v1475h301v-1475h-301zM346 1663v243h226v-243h-226zM-2 1663v243h226v-243h-226z" />
    <glyph glyph-name="Igrave" unicode="&#xcc;" horiz-adv-x="569" 
d="M133 0v1475h301v-1475h-301zM-8 1972h258l197 -369h-142z" />
    <glyph glyph-name="Oacute" unicode="&#xd3;" horiz-adv-x="1214" 
d="M608 -23q-102 0 -190.5 27t-141.5 74q-91 79 -130.5 229t-39.5 447q0 230 24 359t79 210q54 82 156.5 126t240.5 44q106 0 194 -27.5t144 -76.5q87 -77 124.5 -213.5t37.5 -403.5q0 -278 -24 -407.5t-81 -214.5q-54 -82 -157 -127.5t-236 -45.5zM416 741q0 -326 41 -430
t147 -104q110 0 151.5 100.5t41.5 448.5q0 308 -41 408t-148 100q-109 0 -150.5 -102t-41.5 -421zM901 1972l-313 -369h-142l197 369h258z" />
    <glyph glyph-name="Ocircumflex" unicode="&#xd4;" horiz-adv-x="1214" 
d="M608 -23q-102 0 -190.5 27t-141.5 74q-91 79 -130.5 229t-39.5 447q0 230 24 359t79 210q54 82 156.5 126t240.5 44q106 0 194 -27.5t144 -76.5q87 -77 124.5 -213.5t37.5 -403.5q0 -278 -24 -407.5t-81 -214.5q-54 -82 -157 -127.5t-236 -45.5zM416 741q0 -326 41 -430
t147 -104q110 0 151.5 100.5t41.5 448.5q0 308 -41 408t-148 100q-109 0 -150.5 -102t-41.5 -421zM293 1603l196 369h238l196 -369h-141l-174 217l-176 -217h-139z" />
    <glyph glyph-name="apple" unicode="&#xf000;" horiz-adv-x="1618" 
d="M836 1216q-1 6 -1.5 14t-0.5 23q0 124 95 229.5t236 131.5q1 -10 1.5 -23t0.5 -39q0 -131 -103.5 -234.5t-203.5 -103.5h-8q-3 0 -7.5 1t-8.5 1zM1505 403q-114 -247 -205 -342.5t-204 -95.5q-50 0 -131.5 33t-122.5 33q-45 0 -131 -33t-127 -33q-64 0 -128.5 44
t-129.5 132q-102 140 -157.5 295.5t-55.5 300.5q0 219 125 356.5t323 137.5q68 0 155 -34t124 -34q34 0 121.5 35t152.5 35q110 0 198 -40t161 -124q-102 -65 -151.5 -145.5t-49.5 -182.5q0 -113 60 -200t173 -138z" />
    <glyph glyph-name="Ograve" unicode="&#xd2;" horiz-adv-x="1214" 
d="M608 -23q-102 0 -190.5 27t-141.5 74q-91 79 -130.5 229t-39.5 447q0 230 24 359t79 210q54 82 156.5 126t240.5 44q106 0 194 -27.5t144 -76.5q87 -77 124.5 -213.5t37.5 -403.5q0 -278 -24 -407.5t-81 -214.5q-54 -82 -157 -127.5t-236 -45.5zM416 741q0 -326 41 -430
t147 -104q110 0 151.5 100.5t41.5 448.5q0 308 -41 408t-148 100q-109 0 -150.5 -102t-41.5 -421zM315 1972h258l197 -369h-142z" />
    <glyph glyph-name="Uacute" unicode="&#xda;" horiz-adv-x="1266" 
d="M1135 1475v-924q0 -310 -117 -443t-385 -133q-258 0 -380 130t-122 403v967h307v-887q0 -253 43 -321t156 -68q109 0 151.5 76t42.5 313v887h304zM926 1972l-313 -369h-142l197 369h258z" />
    <glyph glyph-name="Ucircumflex" unicode="&#xdb;" horiz-adv-x="1266" 
d="M1135 1475v-924q0 -310 -117 -443t-385 -133q-258 0 -380 130t-122 403v967h307v-887q0 -253 43 -321t156 -68q109 0 151.5 76t42.5 313v887h304zM318 1603l196 369h238l196 -369h-141l-174 217l-176 -217h-139z" />
    <glyph glyph-name="Ugrave" unicode="&#xd9;" horiz-adv-x="1266" 
d="M1135 1475v-924q0 -310 -117 -443t-385 -133q-258 0 -380 130t-122 403v967h307v-887q0 -253 43 -321t156 -68q109 0 151.5 76t42.5 313v887h304zM340 1972h258l197 -369h-142z" />
    <glyph glyph-name="dotlessi" unicode="&#x131;" horiz-adv-x="485" 
d="M387 1028v-1028h-289v1028h289z" />
    <glyph glyph-name="circumflex" unicode="&#x2c6;" horiz-adv-x="1024" 
d="M197 1157l196 369h238l196 -369h-141l-174 217l-176 -217h-139z" />
    <glyph glyph-name="tilde" unicode="&#x2dc;" horiz-adv-x="1024" 
d="M807 1475q-25 -124 -72.5 -182t-122.5 -58q-19 0 -35 2.5t-32 7.5l-83 27q-16 5 -31.5 7.5t-29.5 2.5q-31 0 -48.5 -19.5t-25.5 -62.5h-110q23 124 69.5 182t121.5 58q18 0 39.5 -4t42.5 -11l83 -24q12 -4 24 -6t28 -2q29 0 47 20t24 62h111z" />
    <glyph glyph-name="macron" unicode="&#xaf;" horiz-adv-x="1024" 
d="M246 1264v151h534v-151h-534z" />
    <glyph glyph-name="breve" unicode="&#x2d8;" horiz-adv-x="1024" 
d="M226 1493h118q5 -77 46 -113.5t122 -36.5q82 0 122 36t46 114h118q-9 -156 -78.5 -229.5t-207.5 -73.5q-137 0 -207 74t-79 229z" />
    <glyph glyph-name="dotaccent" unicode="&#x2d9;" horiz-adv-x="1024" 
d="M395 1210v256h236v-256h-236z" />
    <glyph glyph-name="ring" unicode="&#x2da;" horiz-adv-x="1024" 
d="M391 1403q0 -52 34.5 -86.5t86.5 -34.5t87.5 35t35.5 86t-36 87t-87 36q-52 0 -86.5 -35.5t-34.5 -87.5zM248 1403q0 112 76.5 189t187.5 77q112 0 189 -77.5t77 -188.5q0 -112 -77 -189t-189 -77t-188 76.5t-76 189.5z" />
    <glyph glyph-name="cedilla" unicode="&#xb8;" horiz-adv-x="1024" 
d="M231 -438v129q81 -21 146 -32t110 -11q53 0 77 17.5t24 55.5t-28 54t-93 16q-23 0 -35 -0.5t-22 -1.5v211h102v-90h14q118 0 177 -48t59 -143q0 -100 -66 -150t-198 -50q-52 0 -120 11t-147 32z" />
    <glyph glyph-name="hungarumlaut" unicode="&#x2dd;" horiz-adv-x="1024" 
d="M563 1157l154 369h229l-270 -369h-113zM295 1157l115 369h221l-232 -369h-104z" />
    <glyph glyph-name="ogonek" unicode="&#x2db;" horiz-adv-x="1024" 
d="M627 0q-63 -51 -95 -102.5t-32 -102.5q0 -40 20 -60t62 -20h102v-174h-106q-118 0 -178 46.5t-60 138.5q0 71 45 136t145 138h97z" />
    <glyph glyph-name="caron" unicode="&#x2c7;" horiz-adv-x="1024" 
d="M197 1526h139l176 -217l174 217h141l-196 -369h-238z" />
    <glyph glyph-name="Lslash" unicode="&#x141;" horiz-adv-x="934" 
d="M145 0v557l-159 -115v240l159 113v680h312v-549l245 172v-238l-245 -172v-428h450v-260h-762z" />
    <glyph glyph-name="lslash" unicode="&#x142;" horiz-adv-x="514" 
d="M115 0v598l-125 -86v184l125 86v693h284v-572l125 86v-184l-125 -86v-719h-284z" />
    <glyph glyph-name="Scaron" unicode="&#x160;" horiz-adv-x="1128" 
d="M92 455h314v-39q0 -114 38.5 -162.5t128.5 -48.5q71 0 112.5 43.5t41.5 118.5q0 105 -196 233l-19 12l-164.5 110t-91.5 71q-81 74 -111 139.5t-30 161.5q0 185 126.5 295t340.5 110q221 0 332.5 -102t111.5 -303v-39h-305v8q0 104 -37.5 156.5t-112.5 52.5
q-68 0 -108.5 -41t-40.5 -111q0 -119 256 -271l102 -63q145 -92 201.5 -176.5t56.5 -201.5q0 -215 -126 -324t-373 -109q-232 0 -340.5 103.5t-108.5 324.5q0 8 1 25t1 27zM250 1972h139l176 -217l174 217h141l-196 -369h-238z" />
    <glyph glyph-name="scaron" unicode="&#x161;" horiz-adv-x="920" 
d="M66 340h280v-21q0 -76 28.5 -120.5t76.5 -44.5q58 0 93.5 29t35.5 77q0 82 -195 184q-44 22 -68 35q-166 90 -207.5 146.5t-41.5 142.5q0 129 102 209t270 80q186 0 281.5 -71t95.5 -208q0 -5 -1 -15.5t-1 -17.5l-270 1q1 6 1.5 13t0.5 19q0 62 -26 92.5t-79 30.5
q-46 0 -75 -25t-29 -65q0 -66 177 -160q78 -42 124 -69q124 -74 169.5 -137.5t45.5 -153.5q0 -152 -111 -228.5t-329 -76.5q-169 0 -260 81t-91 232q0 16 0.5 24.5t2.5 16.5zM146 1526h139l176 -217l174 217h141l-196 -369h-238z" />
    <glyph glyph-name="Zcaron" unicode="&#x17d;" horiz-adv-x="948" 
d="M4 0v254l610 983h-581v238h891v-263l-602 -970h622v-242h-940zM160 1972h139l176 -217l174 217h141l-196 -369h-238z" />
    <glyph glyph-name="zcaron" unicode="&#x17e;" horiz-adv-x="811" 
d="M51 0v221l408 633h-385v174h684v-184l-408 -654h408v-190h-707zM91 1526h139l176 -217l174 217h141l-196 -369h-238z" />
    <glyph glyph-name="brokenbar" unicode="&#xa6;" horiz-adv-x="1024" 
d="M410 408h206v-758h-206v758zM410 1432h206v-758h-206v758z" />
    <glyph glyph-name="Eth" unicode="&#xd0;" horiz-adv-x="1276" 
d="M479 666v-435h133q147 0 202.5 97.5t55.5 412.5t-55.5 412.5t-202.5 97.5h-133v-360h211v-225h-211zM166 666h-166v225h166v584h487q285 0 400.5 -163t115.5 -575q0 -411 -115.5 -574t-400.5 -163h-487v666z" />
    <glyph glyph-name="eth" unicode="&#xf0;" horiz-adv-x="924" 
d="M563 934q-11 54 -31 101.5t-49 88.5l-258 -102l-49 117l227 90q-43 43 -95.5 79t-114.5 66l63 121q74 -24 153 -73t164 -124l236 93l49 -117l-205 -82q92 -151 141.5 -334.5t49.5 -372.5q0 -292 -84.5 -401t-298.5 -109t-297.5 107.5t-83.5 398.5q0 250 88 356.5
t293 106.5q24 0 49.5 -2.5t52.5 -7.5zM340 467q0 -192 27 -262t96 -70q68 0 94.5 68.5t26.5 263.5q0 192 -26.5 253.5t-96.5 61.5q-69 0 -95 -62t-26 -253z" />
    <glyph glyph-name="Yacute" unicode="&#xdd;" horiz-adv-x="1096" 
d="M375 0v555l-385 920h342l213 -615l237 615h322l-416 -920v-555h-313zM842 1972l-313 -369h-142l197 369h258z" />
    <glyph glyph-name="yacute" unicode="&#xfd;" horiz-adv-x="924" 
d="M205 -389l112 364l-299 1053h289l156 -737l184 737h281l-428 -1417h-295zM756 1526l-313 -369h-142l197 369h258z" />
    <glyph glyph-name="Thorn" unicode="&#xde;" horiz-adv-x="1139" 
d="M578 944h-129v-414h102q134 0 178.5 45t44.5 166q0 115 -41.5 159t-154.5 44zM131 1475h322v-297h174q261 0 360.5 -97.5t99.5 -343.5q0 -114 -26.5 -203t-77.5 -143q-48 -51 -113.5 -72.5t-207.5 -21.5h-33h-176v-297h-322v1475z" />
    <glyph glyph-name="thorn" unicode="&#xfe;" horiz-adv-x="995" 
d="M389 618v-223q0 -119 30 -177t91 -58q67 0 93 64.5t26 279.5v47q0 219 -25 274.5t-92 55.5q-69 0 -96 -53.5t-27 -209.5zM106 1475h283v-545q31 59 90.5 91t136.5 32q59 0 113.5 -21.5t89.5 -58.5q53 -57 74.5 -155t21.5 -320q0 -281 -66 -402t-216 -121q-80 0 -138.5 27
t-103.5 84v-475h-285v1864z" />
    <glyph glyph-name="minus" unicode="&#x2212;" horiz-adv-x="1706" 
d="M254 713h1198v-203h-1198v203z" />
    <glyph glyph-name="multiply" unicode="&#xd7;" horiz-adv-x="1706" 
d="M416 1202l450 -450l451 450l141 -139l-450 -453l450 -450l-141 -140l-451 451l-450 -451l-140 140l451 450l-451 453z" />
    <glyph glyph-name="onesuperior" unicode="&#xb9;" horiz-adv-x="666" 
d="M264 569v654q-52 -39 -90 -60.5t-70 -29.5v161q47 17 93 49.5t94 81.5h162v-856h-189z" />
    <glyph glyph-name="twosuperior" unicode="&#xb2;" horiz-adv-x="666" 
d="M57 569v156q183 198 273 325.5t90 188.5q0 36 -20.5 56t-57.5 20q-40 0 -61 -25.5t-21 -72.5q0 -11 0.5 -15.5t1.5 -9.5h-188v25q0 107 66.5 165t189.5 58q131 0 202.5 -56t71.5 -159q0 -97 -72.5 -210.5t-275.5 -316.5h352v-129h-551z" />
    <glyph glyph-name="threesuperior" unicode="&#xb3;" horiz-adv-x="666" 
d="M62 805l188 -1q2 -66 21 -93t63 -27q42 0 60 29.5t18 99.5q0 82 -29 110.5t-111 28.5h-32v135h12q93 0 121 24.5t28 100.5q0 57 -19 84t-58 27q-34 0 -53 -25.5t-19 -72.5v-8h-182q-1 3 -1.5 9t-0.5 17q0 101 63.5 149t196.5 48q138 0 200 -55t62 -179
q0 -78 -30.5 -123.5t-92.5 -60.5q76 -17 107.5 -64t31.5 -147q0 -130 -70.5 -193t-216.5 -63q-131 0 -195.5 54.5t-64.5 164.5q0 13 0.5 19t2.5 12z" />
    <glyph glyph-name="onequarter" unicode="&#xbc;" horiz-adv-x="1614" 
d="M1315 0v186h-281v162l219 451h238v-496h70v-117h-70v-186h-176zM1337 303l6 395l-35.5 -90l-39.5 -94l-99 -211h168zM295 -25l850 1475h174l-848 -1475h-176zM252 627v608q-58 -38 -91.5 -56t-60.5 -26v150q41 14 84 43.5t95 78.5h153v-798h-180z" />
    <glyph glyph-name="onehalf" unicode="&#xbd;" horiz-adv-x="1614" 
d="M1034 0v145q172 183 258 303t86 177q0 35 -19 53t-54 18q-37 0 -56.5 -23.5t-19.5 -68.5v-24h-178q0 4 -1 12t-1 12q0 100 63.5 153.5t181.5 53.5q126 0 194 -51.5t68 -147.5q0 -89 -68.5 -194t-264.5 -297h338v-121h-527zM295 -25l850 1475h174l-848 -1475h-176z
M252 627v608q-58 -38 -91.5 -56t-60.5 -26v150q41 14 84 43.5t95 78.5h153v-798h-180z" />
    <glyph glyph-name="threequarters" unicode="&#xbe;" horiz-adv-x="1614" 
d="M1315 0v186h-281v162l219 451h238v-496h70v-117h-70v-186h-176zM1337 303l6 395l-35.5 -90l-39.5 -94l-99 -211h168zM295 -25l850 1475h174l-848 -1475h-176zM57 848h182q3 -64 20.5 -88.5t59.5 -24.5q40 0 57 27t17 92q0 76 -28 103.5t-105 27.5q-3 0 -13.5 -1t-17.5 -1
v127h11q89 0 116 23t27 94q0 53 -18 78.5t-56 25.5q-33 0 -51 -24.5t-18 -69.5v-6h-174v24q0 93 60.5 138t186.5 45q133 0 191.5 -51t58.5 -166q0 -73 -28.5 -115t-88.5 -55q72 -18 102 -61.5t30 -137.5q0 -121 -67.5 -180.5t-205.5 -59.5q-125 0 -186.5 51.5t-61.5 155.5
v29z" />
    <glyph glyph-name="franc" unicode="&#x20a3;" horiz-adv-x="1665" 
d="M131 0v1475h760v-228h-449v-352h428v-227h-428v-668h-311zM1089 0v1030h252l19 -135q28 76 93 117t159 41h18v-250h-26q-121 0 -173.5 -57.5t-52.5 -192.5v-553h-289z" />
    <glyph glyph-name="Gbreve" unicode="&#x11e;" horiz-adv-x="1208" 
d="M1096 776v-749q-149 -27 -252 -38.5t-187 -11.5q-135 0 -228.5 25t-152.5 76q-91 80 -129 225.5t-38 468.5q0 223 23.5 346t78.5 205q57 85 160.5 127.5t253.5 42.5q230 0 350.5 -115t120.5 -336v-22h-303v18q0 125 -43.5 185.5t-133.5 60.5q-113 0 -155.5 -100.5
t-42.5 -442.5q0 -361 51.5 -454.5t192.5 -93.5q31 0 67.5 5t85.5 17v330h-170v231h451zM318 1939h118q5 -77 46 -113.5t122 -36.5q82 0 122 36t46 114h118q-9 -156 -78.5 -229.5t-207.5 -73.5q-137 0 -207 74t-79 229z" />
    <glyph glyph-name="gbreve" unicode="&#x11f;" horiz-adv-x="995" 
d="M606 618q0 154 -27.5 208.5t-97.5 54.5q-67 0 -91.5 -57.5t-24.5 -295.5v-24q0 -211 26.5 -277.5t93.5 -66.5q61 0 91 58t30 177v223zM889 20q0 -238 -90.5 -330.5t-315.5 -92.5q-184 0 -283.5 74t-99.5 210v13l277 -1q3 -71 28.5 -100t86.5 -29t85.5 33t28.5 174v117
q-53 -56 -111.5 -84.5t-121.5 -28.5h-6q-154 0 -220.5 119.5t-66.5 403.5q0 197 13.5 284.5t45.5 143.5q34 60 97 93.5t143 33.5q78 0 137 -32t90 -91l10 98h281q-4 -62 -6 -118t-2 -109v-781zM212 1493h118q5 -77 46 -113.5t122 -36.5q82 0 122 36t46 114h118
q-9 -156 -78.5 -229.5t-207.5 -73.5q-137 0 -207 74t-79 229z" />
    <glyph glyph-name="Idotaccent" unicode="&#x130;" horiz-adv-x="569" 
d="M133 0v1475h301v-1475h-301zM168 1656v256h236v-256h-236z" />
    <glyph glyph-name="Scedilla" unicode="&#x15e;" horiz-adv-x="1128" 
d="M92 455h314v-39q0 -114 38.5 -162.5t128.5 -48.5q71 0 112.5 43.5t41.5 118.5q0 105 -196 233l-19 12l-164.5 110t-91.5 71q-81 74 -111 139.5t-30 161.5q0 185 126.5 295t340.5 110q221 0 332.5 -102t111.5 -303v-39h-305v8q0 104 -37.5 156.5t-112.5 52.5
q-68 0 -108.5 -41t-40.5 -111q0 -119 256 -271l102 -63q145 -92 201.5 -176.5t56.5 -201.5q0 -215 -126 -324t-373 -109q-232 0 -340.5 103.5t-108.5 324.5q0 8 1 25t1 27zM284 -438v129q81 -21 146 -32t110 -11q53 0 77 17.5t24 55.5t-28 54t-93 16q-23 0 -35 -0.5
t-22 -1.5v211h102v-90h14q118 0 177 -48t59 -143q0 -100 -66 -150t-198 -50q-52 0 -120 11t-147 32z" />
    <glyph glyph-name="scedilla" unicode="&#x15f;" horiz-adv-x="920" 
d="M66 340h280v-21q0 -76 28.5 -120.5t76.5 -44.5q58 0 93.5 29t35.5 77q0 82 -195 184q-44 22 -68 35q-166 90 -207.5 146.5t-41.5 142.5q0 129 102 209t270 80q186 0 281.5 -71t95.5 -208q0 -5 -1 -15.5t-1 -17.5l-270 1q1 6 1.5 13t0.5 19q0 62 -26 92.5t-79 30.5
q-46 0 -75 -25t-29 -65q0 -66 177 -160q78 -42 124 -69q124 -74 169.5 -137.5t45.5 -153.5q0 -152 -111 -228.5t-329 -76.5q-169 0 -260 81t-91 232q0 16 0.5 24.5t2.5 16.5zM180 -438v129q81 -21 146 -32t110 -11q53 0 77 17.5t24 55.5t-28 54t-93 16q-23 0 -35 -0.5
t-22 -1.5v211h102v-90h14q118 0 177 -48t59 -143q0 -100 -66 -150t-198 -50q-52 0 -120 11t-147 32z" />
    <glyph glyph-name="Cacute" unicode="&#x106;" horiz-adv-x="1147" 
d="M1064 504q2 -12 2.5 -26t0.5 -42q0 -220 -119 -339.5t-340 -119.5q-102 0 -190.5 27t-141.5 74q-91 79 -129 224t-38 470q0 223 23.5 346t78.5 205q55 83 156.5 126.5t238.5 43.5q224 0 337.5 -114t113.5 -339v-28h-309v28q0 117 -36.5 173.5t-111.5 56.5
q-104 0 -143 -99t-39 -460q0 -303 40.5 -403.5t145.5 -100.5q75 0 112.5 61t37.5 185q0 8 -1 24.5t-1 26.5h312zM891 1972l-313 -369h-142l197 369h258z" />
    <glyph glyph-name="cacute" unicode="&#x107;" horiz-adv-x="995" 
d="M637 381h287q0 -202 -104.5 -303t-313.5 -101q-239 0 -332.5 119t-93.5 441q0 277 99 396.5t327 119.5q200 0 309 -98.5t109 -278.5v-10h-287v10q0 99 -33 147.5t-100 48.5q-76 0 -104.5 -68t-28.5 -280q0 -217 29.5 -292.5t105.5 -75.5q63 0 97 53t34 153v19zM807 1526
l-313 -369h-142l197 369h258z" />
    <glyph glyph-name="Ccaron" unicode="&#x10c;" horiz-adv-x="1147" 
d="M1064 504q2 -12 2.5 -26t0.5 -42q0 -220 -119 -339.5t-340 -119.5q-102 0 -190.5 27t-141.5 74q-91 79 -129 224t-38 470q0 223 23.5 346t78.5 205q55 83 156.5 126.5t238.5 43.5q224 0 337.5 -114t113.5 -339v-28h-309v28q0 117 -36.5 173.5t-111.5 56.5
q-104 0 -143 -99t-39 -460q0 -303 40.5 -403.5t145.5 -100.5q75 0 112.5 61t37.5 185q0 8 -1 24.5t-1 26.5h312zM283 1972h139l176 -217l174 217h141l-196 -369h-238z" />
    <glyph glyph-name="ccaron" unicode="&#x10d;" horiz-adv-x="995" 
d="M637 381h287q0 -202 -104.5 -303t-313.5 -101q-239 0 -332.5 119t-93.5 441q0 277 99 396.5t327 119.5q200 0 309 -98.5t109 -278.5v-10h-287v10q0 99 -33 147.5t-100 48.5q-76 0 -104.5 -68t-28.5 -280q0 -217 29.5 -292.5t105.5 -75.5q63 0 97 53t34 153v19zM199 1526
h139l176 -217l174 217h141l-196 -369h-238z" />
    <glyph glyph-name="dcroat" unicode="&#x111;" 
d="M606 635q0 119 -30 177t-91 58q-67 0 -93.5 -65.5t-26.5 -278.5v-47q0 -218 25 -273.5t91 -55.5q70 0 97.5 54t27.5 210v221zM608 944v213h-256v166h256v152h281v-152h131v-166h-131v-928q0 -46 2 -103t6 -124h-281l-10 98q-31 -58 -90 -90.5t-137 -32.5
q-164 0 -231.5 117t-67.5 438q0 284 66.5 403.5t218.5 119.5q81 0 139 -26.5t104 -84.5z" />
    <glyph glyph-name="sfthyphen" unicode="&#xad;" horiz-adv-x="569" 
d="M33 375v278h504v-278h-504z" />
    <glyph glyph-name="periodcentered" unicode="&#x2219;" horiz-adv-x="506" 
d="M102 715q0 61 42 103t104 42q61 0 103 -42t42 -103q0 -62 -42 -104t-103 -42q-62 0 -104 42t-42 104z" />
    <glyph glyph-name="Euro" 
d="M678 416h283v-25q0 -192 -109 -303t-295 -111q-212 0 -319.5 133t-118.5 408h-139l65 146h64v143h-148l66 147h92q7 274 115 406.5t323 132.5q195 0 295 -104t100 -306v-28h-280v30q0 100 -29.5 146.5t-91.5 46.5q-76 0 -112 -78.5t-37 -245.5h362l-66 -147h-297v-143
h234l-66 -146h-168v-39q0 -135 40.5 -210.5t111.5 -75.5q59 0 92 54t33 152v17z" />
    <glyph glyph-name="Euro" unicode="&#x20ac;" 
d="M678 416h283v-25q0 -192 -109 -303t-295 -111q-212 0 -319.5 133t-118.5 408h-139l65 146h64v143h-148l66 147h92q7 274 115 406.5t323 132.5q195 0 295 -104t100 -306v-28h-280v30q0 100 -29.5 146.5t-91.5 46.5q-76 0 -112 -78.5t-37 -245.5h362l-66 -147h-297v-143
h234l-66 -146h-168v-39q0 -135 40.5 -210.5t111.5 -75.5q59 0 92 54t33 152v17z" />
    </font>
</defs>
</svg>
